<?xml version="1.0" encoding="utf-8" standalone="no"?>
<!DOCTYPE svg PUBLIC "-//W3C//DTD SVG 1.1//EN" "http://www.w3.org/Graphics/SVG/1.1/DTD/svg11.dtd">
<svg xmlns="http://www.w3.org/2000/svg" viewBox="0 0 78.70404 30.534">
  <path d="M14.242 10.904H8.564l1.78-6.785h7.35l1.054-4.11H6.983L0 26.619H4.441l3.046-11.605h5.682l1.073-4.11"/>
  <path d="M22.66802 7.01599c-4.257 0-6.159 1.383-6.815 3.883-.505 1.93-.595 2.28-.595 2.28h4.466s.165-.75.542-2.158c.376-1.41.879-1.5 1.556-1.5.288 0 1.238.024.84 1.774-.10895.48-.45795 1.942-.90594 3.682-.59406.025-.984 0-2.134 0-1.875 0-5.07.574-6.03 4.067-.965 3.493-1.79 5.517-.68005 6.877 1.045 1.28 4.03 1.244 6.31-1.284l-.52001 1.982h4.518s3.66-13.94 4.12-15.713c.46-1.78-.829-3.89-4.672-3.89zm-2.852 15.336c-.355.657-.825 1.137-1.445 1.137-1.641 0-.829-2.134-.386-3.707h.001c.153-.548.34-2.322 2.13-2.322.377 0 .714-.00995.98-.02-.43 1.655-.883 3.392-1.28 4.912z"/>
  <path d="M31.82 0l-6.983 26.607v.003h4.443L36.26 0h-4.44"/>
  <path d="M37.869.011l-6.982 26.61h4.442l6.98-26.61h-4.44"/>
  <path d="M39.21302 17.97999l9.395-10.937c-.233-.018-.474-.03-.728-.03l-.001-.001c-4.258 0-6.133 1.372-6.79 3.872-.283 1.082-1.666 6.323-1.876 7.096z"/>
  <path d="M45.73302 15.14899h5.75c.488-1.796.814-3.26 1.07-4.246h-.002a2.89015 2.89015 0 0 0-1.99-3.424l1.168-4.073z"/>
  <path d="M44.84502 18.19799h-5.688c-.46906 1.725-1.013 3.74-1.25305 4.66h.001c-.42 1.622.625 3.52 3.733 3.84z"/>
  <path d="M40.18902 30.53399l4.26-3.896-.001-.001c2.952-.367 4.365-1.665 4.915-3.763.284-1.079 1.886-6.876 2.06-7.516z"/>
  <path d="M61.99202 7.69699c-.217.94806-3.617 13.651-3.85 14.518-.362.726-.855 1.274-1.515 1.274-1.567 0-.796-2.259-.354-3.833l3.14-11.956h-4.43l-3.04 11.502c-.964 3.49005-1.6 5.36-.49 6.72 1.051 1.284 3.764 1.242 6.048-1.308-.32935 1.21558-.53516 1.98248-.54089 2.004h4.43589s4.59-17.146 5.05-18.923z"/>
  <path d="M76.41102.05499l-5.305 2.187-1.463 5.457h-1.698l-.657 2.56h1.67l-2.396 8.944c-.964 3.49-1.77 5.45-.557 6.72.922.96 2.417.827 5.547.7l.81-3.134h-.938c-1.554 0-.786-2.132-.344-3.705l2.573-9.526h2.156l.004.001.65594-2.56h-2.12294z"/>
  <path d="M77.93402 1.01099a.77.77 0 1 0 .77.77.7579.7579 0 0 0-.77-.77zm.001 1.427a.66008.66008 0 1 1 .65-.66.64351.64351 0 0 1-.65.66z"/>
  <path d="M78.32902 2.22499l-.264-.395a.24188.24188 0 0 0 .223-.25c0-.16-.09-.246-.29-.246h-.342v.89h.11v-.396h.184l.25.396-.001.001zm-.419-.488h-.145v-.31h.202c.106 0 .21.028.21.153v.002c0 .151-.133.155-.267.155z"/>
</svg>
