<svg width="720" height="485pt" viewBox="0 0 540 485" xmlns="http://www.w3.org/2000/svg"><path fill="#0f0" d="M317.35 6.38l4.02 1.49c.94 2.17 1.48 4.47 2.14 6.73 1.22-.05 2.38-.46 3.55-.81 1.02 1.21 2.02 2.45 3 3.7 2.65-.58 4.17-2.8 5.32-5.08 1.39.66 2.75 1.36 4.14 2.02.33 2.46-.87 5.94 2.22 6.9 2.6.87 3.49-2.64 6.01-2.37l1.12 3.19c1.93.67 3.96 1.13 5.81 2.04 1.04 1.54 1.48 3.37 2.11 5.1 1.55.62 3.6.67 4.54 2.27 1.61 2 .79 4.71 1.3 7.04 1.63 1.36 3.58 2.25 5.46 3.23 1.05 2.97-2.9 4.16-2.6 6.86 3.37 1.46 7.35 1.04 10.44 3.26.23 2.62.18 5.87-3.08 6.45-1.91.17-1.56 1.75-1.38 3.12 1.73.37 3.49.4 5.25.22.13 1.56.17 3.13.14 4.7l-2.71 1.16c1.05 1.4 1.77 3.62 4.06 3.2-.69.96-1.01 2.15.2 2.88a15.61 15.61 0 0 1-5.98 8.31c-1.44 1.37 1.39 1.67 2.06 2.46l4.56-.88c1.3 3 1.45 8.48-3.12 8.23a28.72 28.72 0 0 0 2.1 3.07c-.6 1.01-.68 2.16.52 2.79-.91 4.32-5.21 2.7-8.12 1.83-.16 3.03 1.42 6.5-.97 8.99l-2.23.01a27.74 27.74 0 0 1-4.14-6.92c-2.09-.2-4.19-.25-6.28-.27l-.33-2.6c-1.51-.33-3.7-.34-3.19-2.52 1.27-1.95 2.92-3.62 4.36-5.45-2.29.46-3.84-1.97-4.06-3.97.62-2.54 3.65-3.24 4.63-5.56-1.45-1.61-3.39-2.99-3.74-5.29-.84-2.69 1.43-5.06 2.32-7.42-1.95-.47-5.57.42-5.82-2.51-1.23-2.98 2.09-5.67 1.39-8.61-1.64-1.2-3.51-2.02-5.2-3.11-.15-2.29.5-4.47 1.37-6.56-2.15-.45-4.95-.41-6.07-2.67-2.16-2.42-.74-5.56-.5-8.35-2.01.14-4 .5-6 .69-2.38-.4-4.04-2.14-4.81-4.4l1.44-1.18c-.51-1.21-1.06-2.4-1.58-3.6a41.44 41.44 0 0 0-3.15 3.86c-2.31.39-4.83.24-6.85-1.04-1.84-1.79-1.1-4.64-1.44-6.93-2.49 1.42-3.66 4.14-5.34 6.33-3 .71-6.16.78-9.1-.29a199.2 199.2 0 0 0-4.36-3.9 18.03 18.03 0 0 0-5.04 4.65c-2.85 1.06-5.85 1.67-8.71 2.69-1.92 2.13-4.81 2.68-7.39 3.62-.65-3.07-.91-6.39.14-9.39.98-2.77 4.22-3.44 6.7-4.15-.96-2.07-1.6-4.26-.96-6.53 2.22-.05 4.44.1 6.64.34l.3 3.24c1.33-2.64.22-6.07 2.29-8.3 3.4.16 5.86 2.69 8.04 5l1.08 1.03 1.38-1.31c1.51-2.68 2.18-5.68 2.6-8.7 2.94.03 5.7 1.36 6.68 4.31l1.93.02c.37-2.11.63-4.24.89-6.36m38.94 44.57c.73 1.45 1.65 3.68 3.74 2.89 2.33.11 2.64-2.36 2.84-4.09l-2.54-.56c-1.34.6-2.69 1.19-4.04 1.76m8.25 6.29c-2.06 2.97-1.55 6.48.34 9.39 1.58-.18 3.15-.45 4.7-.85-.07-2.4.69-5.3-1.05-7.28-.88-1.33-2.65-.95-3.99-1.26m-4.26 19.71c1.8 3.42 6.08 4.12 9.42 2.68.86-2.5 2.23-5.2.98-7.83-.82-3.38-4.96-3.77-7.82-3.93-1.91 2.55-4.27 5.8-2.58 9.08m-.34 14c.14 2.3 1.28 4.35 2.29 6.37 2.04.51 4.15 1.41 6.29.87 2.76-2.5 5.43-5.28 5.67-9.23-.58-1.25-1.14-2.51-1.67-3.77-4.8-3.73-11.58.32-12.58 5.76z"/><path fill="#fff" d="M315.26 31.34c1.63 1.49 3.26 3.04 5.22 4.1 2.3.46 4.67.15 7 .31 1.42 1.51 1.83 3.93 3.85 4.87 1.84.99 3.98.54 5.95.36.45 3.63 1.85 7.33 5.32 9.06a16.06 16.06 0 0 0 5.97 12.05c-.47 1.95-1.28 3.94-.77 5.97.82 1.49 2.06 2.66 3.08 4.01a19.05 19.05 0 0 0 1.01 9.72c-.82 2.31-2.58 4.63-1.72 7.2.67 1.34 1.53 2.57 2.31 3.85-.89 2-2.02 3.94-2.34 6.14.73 1.06 1.67 1.92 2.45 2.94a21.75 21.75 0 0 1-.54 3.92c3.42-.91 8.05-1.84 10.36 1.64 1.34 4.11-1.22 8.14-3.44 11.43-.88.81-1.75 1.63-2.59 2.47-4.19 2.33-9.28 2.51-13.96 2.42l-.68-1.51-.29.88a41.35 41.35 0 0 1 3.8 5.56c-5.38 6.28-12.17 11.2-19.49 14.98a53.3 53.3 0 0 1-18.3 3.64l.92 2.11 4.07.29c.02 2.43-2.24 2.54-4.09 2.85l-1.07-1.33.64 1.88c-3.23 2.37-7.1 3.49-11.02 4.04-4.74 1.17-10.36-1.75-11.64-6.62a22.86 22.86 0 0 1 7.87-1.23c-3.18-3.88-8.59-3.9-13.15-4.39-4.38-.42-7.56-3.71-10.74-6.4-6.67-5.5-12.35-12.64-14.64-21.09-1.11-4.07-.53-8.36-1.56-12.44a20.77 20.77 0 0 1 1.78-15.22c1.49-2.1 3.18-4.7 6.03-4.87 3.96-.37 7.96-.47 11.9-1.12 1.25 5.36 4.94 9.93 9.11 13.37 6.29 4.72 14.84 3.88 21.8 1.22 4.3-1.46 8.48-4.17 13.22-3.2 2.45.58 4.69-1.14 7.07-.87 1.47 1.04 2.83 2.22 4.29 3.28a12.3 12.3 0 0 0-1.86-9.11c-2.38-1.44-5.29-2.06-7.69-.28l2.39 1.6c-1.2.71-2.41 1.4-3.61 2.1-1.16-5.36-2.99-10.76-6.97-14.72l.04-.65c-5.06-3.01-10.4.02-15.63.28-2.52-3.66-6.74-5.62-10.92-6.65-1.81.49-3.24 1.85-5.02 2.39-3.75.35-7.55.65-11.29.1l-.41-3.75c2.12-1.58 4.4-2.94 6.4-4.69a51.39 51.39 0 0 0-2.42-3.42c.57-7.99 6.05-14.76 12.73-18.76 5.26-3.79 11.58-5.81 17.9-6.94 4.78.26 9.74.37 14.06-2.11l-.69-1.66M289.5 41.65c-3.78 1.94-7.74 4.09-10.26 7.63 4.28 1.26 8.06-2.49 12.28-1.06 2.42.59 4.92.1 7.08-1.09-1.38-3.59-5-7.03-9.1-5.48m35.65 3.83c-.7 2.04-.92 4.2-.88 6.35 5.42 1.13 7.42 6.67 10.69 10.4a19 19 0 0 0-.33-10.95c-1.68-2.65-4.41-4.34-6.98-5.99l-2.5.19m-20.54 1.14a31.79 31.79 0 0 0-10.03 8.14c-3.44 5.28-4.53 11.9-3.38 18.07 4.96.33 11.93-1.01 13.57-6.55-3.8.99-7.21 3.47-11.26 3.35-.12-4.46 1.63-8.59 3.64-12.48 2.31-4.31 6.64-6.77 9.76-10.37l-2.3-.16m-19.77 4.18a11.3 11.3 0 0 1-.96 4.45c.05-1.84-.28-3.59-.97-5.25l-.46 4.45-2.28-2.32c.33 2.21 1 4.7-1.74 5.66l1.46.9-2.18-.73c-.46 1.27-.97 2.52-1.34 3.82 1.64.48 3.04-.81 4.59-1.13 1.69.56 3.38 1.17 5.19 1.13a27.92 27.92 0 0 1 3.12-5.23 11.24 11.24 0 0 0-2.66-2.58l-.05-3.75-1.72.58m33.7 6.52c-.19 2.2-.32 4.41-.45 6.61l-2.73.71-.15 2.18 5.34-.17c.15 1.45.12 2.93.46 4.35.49 1.6 2.45 1.59 3.72 2.21 1.65-.52 3.35-.91 5.06-1.23a31.14 31.14 0 0 0 3 4.07c-1.33 3.67 1.24-.61 1.44-1.85-.98-3.33-2.7-6.56-5.72-8.46.76-.99 1.56-1.97 2.36-2.94l-2.35-.27c-.77 1.12-1.53 2.24-2.28 3.37l.51-1.96-2.19-.01c.42-1.58.98-3.11 1.67-4.6l-2.36-.84c-.32 1.78-.72 3.55-1.05 5.33-3.83-.01-2.87-4.45-2.15-6.88l-2.13.38m21.81 26.89c-.59 1.63-.06 2.21 1.57 1.74.57-1.63.05-2.21-1.57-1.74m1.23 14.34c.24 1.04.48 2.08.76 3.12.69-.48 1.37-.97 2.05-1.48l.14-1.75-2.95.11m-82.92 1.18l-.28 3.2 3.13.82-.05-4.17-2.8.15m70.81 2.92c.39 1.29.77 2.59 1.28 3.84.92-.32 1.79-.76 2.69-1.14l-.48-2.92c-1.17.06-2.33.14-3.49.22m-65.78 2.73l.15 2.98 2.53-.13.16-2.78-2.84-.07m49.75 5.27c-4.53 2.29-5.25 7.91-3.42 12.22 1.64 2.12 3.43 4.19 5.91 5.36a16.43 16.43 0 0 0 2.53 4.99 45.32 45.32 0 0 0-.39-5.2 20.58 20.58 0 0 0 5.97-3.49 35 35 0 0 0 .61 3.52l-.03-2.84c1.12.76 2.61 1.55 3.84.52a90.79 90.79 0 0 0-3.3-2.36c-.08-3.96.04-8.13-2.43-11.49-2.76-1.69-6.28-3.54-9.29-1.23m-50.23 9.47c2.09 7.43 7.39 14.3 14.9 16.75 8.82 2.77 18.35 1.19 26.91-1.76 1.34-.65 3.47-.91 3.82-2.65-3.67-1.37-7.3.73-10.88 1.37-8.24 2.08-17.45.81-24.22-4.53-5.24-4.35-8.53-10.33-11.26-16.45-1.05 2.41.19 4.9.73 7.27zM363.92 33.51c1.43.4 2.9.76 4.24 1.44 8.84 4.57 17.19 10.51 23.2 18.55 4.7 6.8 7.06 14.83 9.41 22.65 5.56 19.35 9.74 39.07 13.23 58.88 2.73 27.1.46 54.87-8.38 80.72-3.32 8.96-6.67 17.97-11.34 26.34-3.52 6.99.19 14.77 3.03 21.33 3.61 7.16 3.98 15.84 9.4 22.09 1.62 2.26 4.73 3.15 5.77 5.87 18.51 38.87 36.63 77.93 54.89 116.91 5.16-1.21 6.56-6.77 9.57-10.31 1.93.16 2.88 2.03 3.98 3.37 2.31 2.95 3.77 6.46 6.09 9.41a32.86 32.86 0 0 0 8.65-7.59c5.01.38 7.26 5.69 11.24 7.86 3.61-.55 5.76-4.06 8.91-5.66-2.73-.66-5.52.74-8.18-.05-3.77-2.47-5.29-7.45-9.6-9.28-3.89-1.26-8.04-1.33-12.08-1.77 1.42.93 2.83 1.9 4.14 3.02 1.23.53 2.48 1.04 3.73 1.56a42.23 42.23 0 0 1-5.78 5.07c-2.62-3.37-4.77-7.07-7.27-10.52-1.92-2.88-5.77-2.37-8.75-2.23-2.46.18-4.6-1.15-6.72-2.17-2.68-.97-3.8-4.32-4.18-6.94a23.7 23.7 0 0 0 6.04-1.73c3.31-2.65 7.96-1.94 11.84-1.27 5.14 2.26 9.61 5.93 15.01 7.62 3.39 1.18 7.05-.11 10.46.98 3.97 1.22 7.94 2.48 11.77 4.11 2.4.88 2.93 3.73 4.68 5.37 2.56 2.33 6.41 2.62 8.83 5.16 1.62 1.38 2.85 3.33 4.89 4.17-6.33 1.02-12.13 4.1-18.5 4.95-3.64.37-6.89 2.04-10.19 3.46-2.04.1-3.49-1.99-5.51-2.2l-.65 1.03-2.14-.42c1.4-.36 1.76-.78 1.1-1.26-1.46.07-2.9.22-4.33.47-1.21 2.65-2.45 5.34-4.97 7.01l-3.46-.22c-3.59-2.69-5.97-6.6-8.57-10.18 1.07-1.04 2.16-2.07 3.19-3.16l-3.85-.31c-2.97 2.25-4.84 5.52-6.66 8.7-2.87 1.25-6.17 2.35-9.23 1.07-4.27-2.61-6.84-7.11-9.32-11.31-11.65-20.74-21.74-42.3-31.8-63.84-6.05-13.61-12.27-27.16-17.48-41.12-3.46-7.3.77-15.74-2.37-23.1-5-8.58-11.02-16.51-16.32-24.88a62.51 62.51 0 0 0 5.06-13.96c1.42.16 2.85.29 4.28.39-.95-1.31-2.1-2.41-3.18-3.61.09-2.86.93-5.65 1.11-8.52 1.47.14 2.94.26 4.41.36-.39-1.86-2.17-2.36-3.73-2.85-.03-10.19.3-20.44-1.47-30.52 1.79-.37 3.58-.79 5.38-1.18l1.19-1.88c-2.54-.1-5.08.02-7.62.08-.35-3.15 2.58-2.72 4.73-2.98l.03-2.33c-1.77.07-3.54.14-5.3.19-.35-1.62-.69-3.24-1.05-4.85 2.27-1.25 4.51-2.57 6.8-3.78a21 21 0 0 0-2.92-1.47c-1.54.8-3.13 1.47-4.74 2.11-.89-3.49-2.76-6.56-4.56-9.62-1.06-18.1-4.84-35.98-7.6-53.91 1.5-2.42 2.37-5.13 3.16-7.85 1.18-1.62 3.07-2.77 3.58-4.83.26-2.42.06-4.86.18-7.29.68-2 1.64-3.9 2.22-5.94-1.26-3.04-3.8-5.57-4.28-8.89.36-2.74 1.91-5.21 2.01-8.01.21-4.05-1.72-7.73-3.62-11.16 1.09-2.33 3.18-4.8 1.78-7.48-1.79-2.57-4.95-3.56-7.54-5.1.16-3.54-.95-7.03-3.63-9.46-1.45-1.1-2.92-2.18-4.34-3.31zM61.85 35.82c3.78-1.5 8.5-1.09 11.62 1.68 2.37 1.91 4.05 4.61 6.67 6.21 2.86 1.05 5.98.79 8.94 1.35 7.42 1.2 14.08 5.5 18.93 11.15 3.7 4.62 5.95 10.23 7.26 15.96-7.37-1.5-14.5-3.88-21.82-5.55.34-4.5.74-9.86-2.94-13.19-3.42-4.39-9.71-4.22-14.56-2.86-3.19 2.85-5.34 6.89-9.06 9.13a31.6 31.6 0 0 1-14.21.52c-1.86 1.82-3.91 3.92-3.93 6.72.04 3.23-2.18 5.97-4.7 7.74-2.33.98-4.9-.12-7.32-.12-2.62 1.28-5.07 3.11-6.38 5.79-2.46 6.15-.06 13.45-4 19.13-3.87 4.62-11.44 4.45-16.28 1.52-4.98-4.37-4.98-12-3.67-18.01-.34 2.99 1.23 5.49 3.29 7.49 2.64 1.82 6.53 2.94 9.18.52 4.27-3.01 3.43-8.81 4.96-13.2 1.35-3-1.19-6.44.85-9.32 2.34-3.06 7.02-3.19 9.12-6.57 5.06-5.78 1.59-14.2 5.38-20.53 1.67-4.45 7.95-4.28 10.94-1.35-.75 2.63-3.36 3.54-5.84 3.75l.33 1.7 4.02-.08c4.95-2.47 7.92-7.69 13.22-9.58z"/><path fill="#fff" d="M70.15 61.14a34.78 34.78 0 0 1 5.81-7.26c3.87.87 8.52 1.38 11.03 4.85 1.91 2.81-.16 6.1-1.37 8.73 3.13 1.84 6.84 1.81 10.31 2.43 7.02 1.07 13.87 3 20.77 4.64l.52 2.98c-8.43-3.06-17.43-3.98-26.24-5.37l-.48 2.46c9.76.4 19.01 3.77 28.25 6.61l.35 3.26c-6.72-2.94-13.91-4.61-20.98-6.47l-3.71-.72-.82 3.36c7.57 1.25 15.21 2.53 22.23 5.79l.74 2.66c3.79.53 8.14 1.44 10.34 4.93 2.52 4.77.44 11.07-3.98 13.95l-1.19-1.96-.79 2.74-1.1-.75c-.05 4.07 1.46 7.96 1.43 12.03.38 13.1-5.22 25.38-11.83 36.37l.65.34c2.69-2.98 4.02-7.93 8.14-9.08-1.94 3.85-1.97 8.98-5.76 11.62-2.57 2.14-4.69 4.73-6.83 7.28-1.53-.17-3.08-.43-4.62-.27-17.13 2.53-35.77-1.27-49.09-12.78-14.59-12.21-21.59-31.1-24.41-49.44 1.44-1.56 2.96-3.12 3.88-5.05 1.29-2.86.51-6.02.61-9.02-.02-2.83.73-5.57 1.52-8.26 4.36-4.01 11-2.27 15.79-5.57 1.46-3.84 1.64-7.98 2.47-11.97 5.43-.3 10.82-1.17 16.27-1.25l2.09-1.81m-6.61 26.28c4.79.29 10.01.87 14.44-1.34-4.31-2.55-9.4-2.78-14.26-3.19-.1 1.51-.16 3.02-.18 4.53m32.53-.32l-.3 2.96c5.76-.83 11.26 1.31 16.76 2.65l-.3-2.75c-4.88-2.89-10.61-3.39-16.16-2.86M70.75 98.94c-.48 2.92 1.38 5.33 3 7.53 1.35.28 2.7.98 4.12.71 1.47-.68 2.67-1.82 3.99-2.75l-1.43.58c1.22-4.15-.76-9.94-5.47-10.7-2.58-.41-4.51 2.26-4.21 4.63m-36.17.6c-.95 4.21-1.22 8.62.01 12.81 2.1-3.91 5.03-7.64 5.07-12.29-1.7-.16-3.39-.34-5.08-.52m22.85 6.82c-1.22 6.16-1.76 12.45-2.15 18.7 1.95 2.95 5.22 4.76 8.4 6.14 2.24.98 3.23-1.86 4.32-3.26-2.74-.52-5.45-1.22-7.9-2.58.65-5.29.96-10.65.27-15.96-.9-1.09-1.95-2.03-2.94-3.04m-17.61 8.53c-2.34 4.33.51 10.05 5.08 11.47l3.4-1.07c1.57-3.5 1.09-7.91-1.75-10.63-1.83-1.62-5.41-2.39-6.73.23m29.52 29.22l1.18 1.26c2.23.13 4.74-.23 6.26 1.77 1.22 1.63 3.26.48 4.87.26l-.24-3.41c-1.74-.78-3.44-1.76-5.36-2.03-2.38.18-4.55 1.24-6.71 2.15m5.2 7.16l.26 3.2 1.06 2.04c4.32 2.25 8.29-1.52 12.56-1.89l-2.2-2.17c-2.52-.79-4.84.12-7.04 1.35-1.77-.36-3.14-1.62-4.64-2.53zM364.85 63.87c-.93-2.52 1.14-3.84 3.3-4.21.15 1.46.26 2.93.24 4.4l-3.54-.19zM363.96 70.58l2.92-.07c3.21 1.04 2.14 4.84 1.45 7.26-1.83-.07-3.65-.15-5.46-.24-.82-2.44-.19-4.81 1.09-6.95zM283.59 73.67l2.03-.1c3.41 1.8 6.04 4.71 9.3 6.73 5.13-.23 11.08-1.51 15.05 2.71 1.53 2.4 3.21 4.92 2.97 7.91a16.64 16.64 0 0 0-10.93-7.98c-3.03-.74-6.13 1.13-9.09.25-3.8-2.08-5.66-6.28-8.93-8.99l-.54 1.65.14-2.18zM231.43 83.66c-3.21-3.11-1.63-10.83 3.72-9.99-.6 2.44-2.76 4.66-1.5 7.32a28.98 28.98 0 0 0 2.02-4.47c.05 2.52-.19 5.03-.06 7.55l-.74-.65c-.93 1.58-2.48 1.69-3.44.24m2.67-2.4c-1.38 2.93 2.94.27 0 0zM239.95 83.42c-2.11-1.6-2.66-6-.16-7.09 1.07 2.27.51 4.74.16 7.09zM241.72 76.18c13.25-.2 26.49-.58 39.75-.82l.79 3.06c-13.57 1.13-27.03 3.53-40.64 4.3l.1-6.54z"/><path fill="#fff" d="M278.03 83.66c3.43-.13 7.18-1.16 10.33.71 2.17 1.01 4.1 3.24 6.72 2.39 5.13-.79 11.69.22 14.05 5.5-6.6 3.74-14.46 6.24-21.94 3.68l.41-1.96-.75 1.61c-4.37-2.6-8.16-6.71-8.82-11.93zM364.56 87.76l2.46-1.33c2.94.01.71 3.58 2.14 4.77l1.86-2.21c.47 1.1 1.81 2.3.58 3.41l-2.42.68c-1.32 1.07-2.64 2.15-4.1 3.03-1.44-2.6-1.26-5.56-.52-8.35zM19.58 107.07l.91-1.56c1.36 1.58 3 2.98 4.01 4.83.94 2.32.38 4.86-.02 7.24l-1.96.03c-1.85-3.23-2.64-6.87-2.94-10.54zM315.14 125.24c-4.93-2.93-3.69-11.22.9-13.79 4.56-.18 6.31 5.35 6.93 9.02l-2.61.19c.29.74.61 1.47.95 2.2-.88.55-1.75 1.12-2.62 1.68-.55-2.41-3.52-1.5-3.55.7zM365.96 115.13c1.83-.2 3.66-.41 5.48-.68a210.02 210.02 0 0 1 4.17 21.66c-2.11-.02-.7 1.28.29 1.84 1.42 8.54 2.6 17.14 3.47 25.76-4.27-4.04-8.76-7.9-13.82-10.94.11-12.55-.38-25.11.41-37.64zM353.59 127.72l4.92-1.44c-.37 7.28-.23 14.57-.67 21.85-.89-.45-1.77-.92-2.64-1.38-1.32-.93-3.49-1.13-4.1-2.74.35-5.52-.87-11.46 2.49-16.29zM342.81 140.87a14.05 14.05 0 0 1 3.92-3.4l.1 4.79-4.02-1.39zM128.52 140.56c2.67.39 5.32.89 7.93 1.59.1 5.84 0 11.7-.76 17.5-.89.85-1.78 1.7-2.62 2.6-1.92 1.67-4.25 2.7-6.61 3.58-.67-3.81-1.06-7.98-3.88-10.91.15-3.39 1-6.69 2.42-9.76l1.67-2.5 1.85-2.1zM141.16 143.52c15.03 4.5 28.44 14.42 36.82 27.73 3.19 4.21 4.52 9.52 7.89 13.61l-1.25-1.58c-1.73 2.35-4.08 4.1-6.15 6.11-4.42 4.03-8.01 8.86-11.55 13.67-1.03-1.2-1.92-2.53-3.04-3.66-1.09-.69-1.85.62-2.6 1.18l1.63.87c.93 1.25 1.98 2.43 2.86 3.73-1.96 4.01-4.06 8-4.97 12.42-3.23.21-6.47.14-9.7.08l-2.96 1.82c3.92 1.12 8 .58 12 .36-.25 1.96-.48 3.91-.66 5.88-2.28.29-4.56.57-6.85.81l-2.3 2.08c2.96-.07 5.91-.26 8.86-.53-.34 10.7 3.86 20.65 6.37 30.84-4.29 18.19-2.77 37.1-.71 55.48a16.04 16.04 0 0 1-15.72-2.55c-1.72-1.01-1.68-3.12-1.83-4.85-1.51-23.03-2.87-46.07-4.5-69.09-1.02-12.16-1.5-24.39-3.63-36.43-1.32-.05-2.63-.08-3.95-.1.95 31.13 2.89 62.25 4.37 93.37-.66.8-2.05 2.31.03 1.99.25 2.15.33 4.32.22 6.49-3.23-2.43-6.07-5.31-9.01-8.06a271 271 0 0 1-12.15-14.07c-1.63-3.45-2.26-7.22-3.12-10.89-2.93-10.73-5.03-22.58-.89-33.28 3.16-10.67 7.29-21.03 10.39-31.71.53.49 1.08.98 1.65 1.44-.18-1.08-.55-2.12-.83-3.18 3.4-8.41 5.69-17.38 10.62-25.08 1.01-1.72.35-3.66-.21-5.39-1.8-.2-2.73-1.16-2.09-2.97.44-2.71 3.91-1.5 5.81-1.81 1.53-8.16.71-16.49 1.15-24.73m-24.49 113.89c-3.24 4.46-1.68 11.52 3.32 13.96 1.12-.3 2.25-.6 3.37-.88.58-2.44 1.53-4.82 2.06-7.23l-1.07-1.28c-1.72-2.68-4.02-5.73-7.68-4.57m5.63 16.55c-1.26 3.92-1.22 8.85 2.24 11.66 1.22 1.45 3.19.98 4.85 1.06 2.86-4.12 1.55-9.38-1.18-13.18a7.3 7.3 0 0 0-5.91.46zM221.1 145.97l1.35-.75c-.3 1.7 1.42 1.85 2.6 2.36-5.58 1.59-10.19 6.09-12.28 11.46a6.32 6.32 0 0 0 3.13 8.03c5.09 2.61 13.04 2.23 15.81-3.53 2.32-4.96 1.71-11-.74-15.8l4.27-.14 3.48 3.68c3.89-2.13 5.39 2.95 5.81 5.78.73 2.61-.93 5.02-3.09 6.32-2.97 1.83-6.53 3.88-10.06 2.31a94.3 94.3 0 0 0-3.21 7.01c-2.27.43-3.82-1.36-5.52-2.5l-.54 3.02c-2.01.97-4.07 1.82-6.09 2.75a19.68 19.68 0 0 1-6.8-3.95c-.56-2.62 1.77-3.72 3.42-5.15.72-2.67-1.81-5.11-1.3-7.79 1.07-2.81 3.19-4.99 5.42-6.92.29-2.79 1.19-5.7 4.34-6.19zM246.77 149.73c1.5-3.15 5.23-5.08 8.65-4.15-.47 1.69-1.16 3.32-1.7 5.01-2.36.18-4.73.01-6.95-.86zM259.8 146.7a96.13 96.13 0 0 1 5.2-2.27c4.11 2.45 8.23 5.25 13.24 5.05 2.43 3.19 4.22 6.82 6.56 10.08-3.07-2.54-8.07.88-10.77-2.61a16.8 16.8 0 0 0-10.59-8.96 14 14 0 0 1-4.02 1.03l.38-2.32zM329.18 147.16c1.51-.82 2.98-2.06 4.77-2.06 7.21 1.79 14.49 3.85 20.76 8.01-5.84 3.02-12.07 5.21-17.79 8.46-11.42 6.41-21.36 16.14-26.25 28.45-.52 1.72-2.06 2.61-3.52 3.44l-2.84-1.22c1.86-4.59 5.07-8.45 7.21-12.9 1.64-3.36 3.88-6.89 3.3-10.79-5.13-2.27-11.52-7.54-16.89-2.91-.99-.62-1.95-1.24-2.91-1.88 12.24-3.39 24.47-8.16 34.16-16.6zM22.04 159.8c-1.8-5.05-.35-10.93 2.99-15.02 1.45 4.28 2.88 8.72 2.18 13.31l-1.51 1.65-3.66.06z"/><path fill="#fff" d="M217.25 156.15c2.8-3.55 6.9-6.63 11.63-6.45-4.6 1.73-9.22 4.47-10.61 9.54l.35 2.36c2.69 1.25 5.79 1.07 7.95-1.11l.07-2.69c-2 .86-3.93 1.9-6.02 2.52 1.24-4.29 5.05-6.83 9.17-7.96 1.56 3.96.75 8.41-1.56 11.91-3.57 2.77-8.21 1.65-12.14.39-2.17-2.75-.83-6.1 1.16-8.51zM250.99 153.31c1.4-1.68 4.54-3.19 5.55-.24 3.01-1.12 6.34-2.39 9.17-.07l-.27 3.35c2 .15 4.05.29 5.81 1.38-.36 1.31-.71 2.62-1.05 3.94l-2.4-.39c-2.17-2.09-5.11-2.36-7.93-1.74a77.17 77.17 0 0 0-2.93-2.2c-2.07 2.43-4.77 3.79-8.02 3.35a16.77 16.77 0 0 1-3.22-2.71c-.49-1.6.54-3.15.86-4.68 1.47-.03 2.95-.02 4.43.01zM328.92 173.9c9.23-7.98 20.36-13.73 32.36-16.15 4.21 3.04 8.14 6.46 11.92 10.02 4.22 4.67 6.84 10.59 8.45 16.63-1.83 1.78-3.51 3.86-3.24 6.59 1.39-1.23 2.73-2.5 4.06-3.8 4.2 20.4.74 41.68-6.94 60.83l-.7-.76c-.78 5.83-5.1 10.56-8 15.53-5.26 6.43-11.61 12.71-20.02 14.53-15.69 3.61-31.9-.33-46.91-5.07l-.37-1.99.89 1.02c10.33-8.83 17.5-21.06 20.57-34.27 2.76-10.6 2.3-21.69 1.04-32.47 6.5 1.5 12.74 4.04 19.36 5.02l1.28-2.73c-3.48-4.62-9.56-5.64-14.59-7.77-2.59-.84-5.11-1.96-7.81-2.34l-1.07 1.08.73-1.69-3.94-.36c-.03-2.68-.93-5.75.82-8.09a81.7 81.7 0 0 1 12.11-13.76m29.62-2.49c-.85 1.94 2.05 1.6 3.13 2.24.06-1.02.97-2.34 0-3.19-1.02.21-2.58-.16-3.13.95m9.76 4.14l-.7 2.37-1.6-.18c1.5.35 3.02.62 4.54.89l.15-2.14-2.39-.94m-3.42 8.98a61.8 61.8 0 0 0-.7 3.34c1.34.57 2.79.32 4.19.2-.08-2.12-1.7-3.05-3.49-3.54m3.84 29.03c.04.9.14 1.79.29 2.69 2.04-.47 3.74-1.72 3.58-4.01-1.31.35-2.85.29-3.87 1.32m2.97 11.01c-.15 1.02-.28 2.04-.41 3.06l3.12-.23-.06-2.95-2.65.12m-8.31 11.86l.03 2.31 2.36.11-.2-2.28-2.19-.14m-1.26 11.23l.2 2.77 2.56-.74-.25-2.08-2.51.05m-31.37 6.14l-.29 2.09a61.6 61.6 0 0 0 3.04-.4c.05-1 .07-1.99.07-2.98-.95.43-1.89.85-2.82 1.29m12.94 11.16l-1.57 3.46 3.14 1.11.27-2.75-1.84-1.82m-25.23 3.7c.97.78 2.26.73 3.43.93a30.49 30.49 0 0 0-1.99-2.87c-1.26.19-1.74.84-1.44 1.94m9.63 1.91l1.89-.36.52 3.07c1.52-.9 1.43-2.39.98-3.91-1.13.39-2.27.79-3.39 1.2z"/><path fill="#fff" d="M254.9 163.12c.58-.95.23-3.34 2.02-2.67.74.55 1.41 1.19 2.09 1.82-1.36.31-2.73.59-4.11.85zM280.67 162.31c1.12-.91 2.25-1.8 3.4-2.67.83 1 1.65 2.01 2.45 3.04 3.45.8 4.47 4.63 6.99 6.72 1.99 1.38 1.21 3.6.26 5.32l-3.16.96c.83 3.45.43 8.32-3.54 9.59-2.85-.22-5.68.15-7.57 2.52-3.73.86-6.92-1.4-8.38-4.69 2.62-.13 5.64.83 7.88-.97 3.81-2.98 5.3-7.84 6.78-12.24.75-2.09 1.08-5.88-1.78-6.34-3.59-1-6.26 2.33-9.1 3.93-1.9-1.52.1-2.69 1.67-3.13l1.14-1.67 2.96-.37z"/><path fill="#fff" d="M260.01 163.05c.98-2.08 3.55-.75 5.17-.24 2.59 2.84 5.86 5.11 7.85 8.46-.7.86-1.41 1.72-2.17 2.53-1.21 1.15-4.12 2.15-2.88 4.25 1.27 2.82 1.2 6.38-1.61 8.23-1.46.2-3.06-.04-4.38.72-1.81 1.55-2.33 4.28-4.53 5.44-3.9 1.12-7.99 1.82-11.59 3.8-1.99 1.35-4.23-.06-5.84-1.3-1.67-1.38-3.73-2.12-5.56-3.22-.58-3.69-2.39-7.11-2.33-10.9a16.45 16.45 0 0 0 3.21-2.29c-.03-2.56-.74-6.55 2.33-7.66 1.94-.76 4.03-.98 6.05-1.44 1-1.76 2-3.53 2.91-5.35 1.98.36 3.94.82 5.9 1.31-2.78 2.05-5.54 4.15-8.56 5.83-1.84 3.77-4.45 7.43-4.63 11.76.14 3.54 4.33 4.42 7.11 4.73l-.44-1.9c-2.99-.49-5.35-3.71-4.54-6.7.61-3.96 4.03-6.56 6.92-8.94 3.34-2.57 6.82-5.27 10.94-6.42-4.34 5.2-12.16 7.21-14.62 14.03-1.22 2.42.64 4.66 2.04 6.49.27 1.16.54 2.34.9 3.48 1.46-.86 2.97-1.67 4.46-2.49 3.88-3.88 7.04-8.4 10.02-12.99.93-1.18.84-2.71.99-4.11-1.16-1.56-3.43-2.9-3.12-5.11z"/><path fill="#fff" d="M252.58 171.44c2.41-2.47 5.61-4.75 9.26-3.99a14.42 14.42 0 0 1-3.22 7.31c-1.96-.06-3.84-.76-5.78-.99-1.42 1.7-1.24 4.23.94 5.23-.42 4.05-4.93 3.71-8 3.86.01-4.81 3.73-8.21 6.8-11.42zM299.31 167.8c3.26 1.57 9.7 1.12 9.47 6.08-5.71 6.43-10.66 14.39-10.75 23.23 1.95 7.35 8.81 13.93 6.4 22.11-7.48 5.06-15.18 9.87-23.41 13.65-7.15 3.42-14.1 8.52-17.31 16-2.04 6.04-2.9 13.28-8.26 17.45-5.64 2.2-11.17-1.8-16.28-3.8.64-2.67.79-5.49-.71-7.9-2.09-.56-4.24-.94-6.08.47-.24 1.63-.49 3.26-.67 4.91l-2.22.02-.1 1.93a20.9 20.9 0 0 1 3.87-15.4c2.38.6 4.93.97 7.19-.25 3.44-2.09 5.26-5.8 7.66-8.87 7.25-2.85 15.2-4.54 22.92-2.59-.63-6.63-7.68-10.99-7.07-17.96-.08-3.34 3.28-5.29 6.09-6.12 4.96-1.24 8.89-4.65 12.74-7.8 3.45-3.04 7.18-5.92 9.63-9.88a40.86 40.86 0 0 0-4.75-1.1c2.56-5.14 7.05-8.98 9.68-14.08 1.08-3.26 1.06-6.78 1.96-10.1m-9.7 34.3c-.53 2.3 1.05 4.01 2.68 5.35l3.18-.16c.79-2.2.77-4.54.59-6.84l-1.25.02-.16-2.08c-1.85.9-4.8 1.18-5.04 3.71m3.99 11.24c-.57 1.61-1.09 3.24-1.59 4.88.2 2.71 2.53 4.12 4.95 2.73 3.94-1.02 3.57-5.6 2.58-8.67-2.01.13-4.01.45-5.94 1.06m-15.85 8.28c-1.44 2.28-2.67 5.27-1.04 7.8.96 2.24 4.06 1.63 5.86.89 2.95-1.77 2.17-5.93 1.94-8.83a15.13 15.13 0 0 0-6.76.14m-21.39 20.99a29.17 29.17 0 0 0-1.66 5.51l1.36 2.18c2.06.21 4.08-.16 5.99-.92.3-2.88.62-6.56-2.86-7.45l-2.83.68m-9.79 19.97c2.24 1.46 5.89 2.41 7.35-.57.22-1.91.71-5.27-1.97-5.55-3.81-1.48-5.67 3.08-5.38 6.12zM86.08 169.45c2.59-.15 5.25-.71 7.72.36l-3.6 1.21c-1.37-.55-2.74-1.08-4.12-1.57zM278.16 171.21a32.25 32.25 0 0 1 4.09-3.09c1.8 4.09.62 9.58-3.26 12.03-3.16 1.27-6.57-.16-9.11-2.08 3.72-.64 9.88.58 10.6-4.65-1.93.7-3.75 1.63-5.63 2.44.97-1.64 2.16-3.13 3.31-4.65zM126.69 170.85c3.73 2.86 4.68 8.01 2.98 12.26-5.12 15.16-11.55 29.84-16.83 44.94a893.77 893.77 0 0 1-.81-43.01c4.67 1.18 9.51 2.02 14.33 1.31 1.92-5.03-.92-10.3.33-15.5zM206.88 179.19a18.35 18.35 0 0 1 9.12-2.44l.03 3.56c2.08-.15 3.96-1.05 5.92-1.65 2.02-.27 3.33 1.57 4.28 3.06-.78 2.13-.55 4.28 1.07 5.93a7.95 7.95 0 0 1 1.13 9.26c-1.1.83-2.04 1.83-2.93 2.87l1.7 3.24c-1.05 2.25-1.6 5.9-4.86 5.45-.72 1.92-2.55 2.32-4.42 2.39-.62 1.91-.91 4.09-2.57 5.45-1.54 1.52-3.79.51-5.54-.03l-1.5-2.38a52.41 52.41 0 0 1-5.02-.28c-1.19-.73-1.67-2.14-2.43-3.25a39.51 39.51 0 0 1-4.28-2.11l.03-2.7 1.83-2.35-.58-3.12a8.49 8.49 0 0 1-2.27-6.51c1.62-.38 3.25-.74 4.9-1.05 1.85-2.89-1.08-7.73 2.72-9.26 2.09-.39 4.22-.47 6.32-.77a106.6 106.6 0 0 0-2.65-3.31m6.61 2.43c-1.63 2.15-4.88 1.27-6.08 3.85-3.82 5.45-7.74 11.54-7.72 18.44-.05 6.66 8.5 12.37 14.21 8.09 5.21-4.24 8.64-10.49 10.34-16.93 1.47-4.88-.02-10.81-4.3-13.81-1.95-1.57-4.45-.41-6.45.36z"/><path fill="#fff" d="M172.44 208.56c5.96-10.83 14.22-20.18 23.26-28.53.02 3.09.38 6.26-.29 9.3-5.68 4.24-11.33 8.67-15.9 14.13-1.59 1.79-2.41 4.06-3.2 6.28l2.06-.08c1.77-1.78 3.68-3.4 5.57-5.06 1.9-1.24 4.1-1.75 6.35-1.92-1.03 6.92-4.12 13.38-4.74 20.39-1.52 11.01 2.28 22.36 9.52 30.68 1.91 2.48 4.47 4.34 6.52 6.69-.06 3.15-3.98 4.15-6.55 4-3.69-.39-7.65.43-11.09-1.31-11.43-6.16-18.95-19.03-18.43-32.05.13-7.99 3.03-15.63 6.92-22.52m2.05 11.15l-.33 2.1 1.11 2.08c1.04-.14 2.08-.33 3.11-.56.32-1.26.44-2.56.6-3.84-1.5.06-3 .13-4.49.22m4.57 8.29l.01 2.75 2.64-.17.55-2.52-3.2-.06m-2.55 6.39c-.21 1.27-.4 2.54-.56 3.83 1.75-.32 2.87-1.61 3.9-2.93-1.11-.32-2.23-.62-3.34-.9m-1.76 13.66l.44 2.71 2.5-.31c-.14-1.79-.96-2.9-2.94-2.4zM212.22 186.21c1.6-1.8 3.96-4.1 6.56-2.71 2.46 2.36 4.02 6.01 3.28 9.44-1.18 6.22-4.47 11.91-8.84 16.44-5.03 4.43-12.04-1.68-11.08-7.48.78 2.67 1.48 6.56 4.76 7.11 4.28.6 6.31-4.1 7.75-7.3 1.96-3.76 2.67-9.72-1.41-12.31-2.68 2.08-4.63 5-4.82 8.46-.06 2.58-1.48 6.31 1.22 8.02-.79.29-1.59.57-2.37.88-1.14-1.39-2.7-2.77-2.47-4.75.59-5.91 3.64-11.33 7.42-15.8zM93.81 188.01c2.78 10.27 5.1 21.11 11.83 29.67l.96-.17c.99 5.15 1.47 10.43.84 15.66-9.39-5.29-16.69-13.95-21.11-23.71l-.84.24c-.61-4.98-.11-9.98.14-14.95 3.49-1.19 6.72-3.19 8.18-6.74zM98.79 189.77c2.73-.12 5.36-.88 7.99-1.56-.17 6.86.51 13.71.13 20.58-1.53-2.43-2.74-5.03-4.12-7.54-1.53-3.74-3.47-7.42-4-11.48zM258.66 195.63c1.55-2.17 2.75-6.12 6.19-5.31 3.22.23 5.52 4.49 2.6 6.75-.41 1.89.65 3.5 1.39 5.15-.87 1.73-2.03 3.28-2.97 4.97l-3.84.46c.14 2.56-.58 5.01-2.69 6.6-1.87.03-3.73.07-5.59-.06l.21 2.15c-2.35-1.29-4.75-2.6-6.79-4.34-1.17-1.64-.25-3.66 1.29-4.63-.01-3.07-.12-6.44 2.09-8.88 1.86-2.74 5.59-1.4 8.11-2.86m1.26-.47c-2.79 4.45-6.41 8.47-8.28 13.43.17 1.6 1.24 2.17 2.76 1.82.53 1.63 2.52 2.01 3.43.48 4.21-3.68 6.67-9.28 5.37-14.89l-3.28-.84z"/><path fill="#fff" d="M210.5 203.97c.1-3.87.27-8.04 2.85-11.16.8 3.95-.62 7.92-2.85 11.16zM272.72 193.3c4.52-.75 9.15-.82 13.62.34l.08 1.43c-.77.67-1.52 1.34-2.27 2.02-2.92 3.57-7.05 6.42-11.9 5.31-1.4-2.97-.36-6.15.47-9.1zM258.68 201.43c.83-.97 1.63-1.97 2.46-2.94-.28 2.08-.71 4.14-1.03 6.21l-3.1.17-.95 2.11c.45-2.03 1.53-3.81 2.62-5.55zM291.46 201.39l3.03-.21c.06 1.33.1 2.67.12 4.01l-3.03-.75-.12-3.05zM306.97 201.24c2.61-.35 5.25-.48 7.85.02 5.68 12.13 5.64 26.4 1.41 38.97-2.7 8.43-7.69 15.92-13.47 22.55a51.13 51.13 0 0 1-8.41 7.62c-9.65-3.45-18.96-7.73-28.24-12.08a97.57 97.57 0 0 1 5.22-11.84c2.86-2.93 6.49-5.02 9.78-7.46 8.65-5.39 17.27-11.5 27.37-13.8 2.51-7.85-.01-16.16-1.51-23.98zM232.31 204.42l2.18.09.41 3.03c2.03-.02 4.11-.69 6.11-.18 2.72 1.96 4.3 5.04 6.08 7.8-.65 2.23-1.43 4.54-.68 6.87.86.88 1.69 1.79 2.5 2.72a79.71 79.71 0 0 1-2.41 3.38l-.25 2.8-3.08-.51c-.78 2.97.41 7.09-2.73 8.92-3.65 2.19-8.04.1-11.94 1.45l-.04-1.73c-3.15 1.92-8.17 2.75-9.96-1.39l-.38-2.8c2.37-.15 4.13 1.98 6.36 2.55 3.11.77 6.79 1.19 9.61-.67.43.35.86.7 1.28 1.07l.67-2.22c4.55-3.32 5.87-9.31 6.96-14.51.27-3.46 1.1-7.82-1.84-10.41-3.08-2.23-7.17-1.32-10.49-.2-4.4 2.01-8.63 5.42-9.93 10.28-1.28 3.84.11 8.01 2.27 11.24 2.3 1.41 5.28 2.08 7.88 1.11 3.42-1.05 5.07-4.6 6.45-7.59 1.1-2-.15-4.01-.92-5.85a6.75 6.75 0 0 0-7-.15c-2.38 2.71-6.06 6.04-3.51 9.88 2.16.07 4.32.09 6.48.1-2.23 1.42-5.02 2.09-7.42.67-1.85-2.75-3.11-6.49-1.47-9.64 2.44-5.3 8.07-8.44 13.76-8.84l2.85 1.36c1.68 5.72-.32 11.65-2.57 16.91-1.88 3.33-5.47 6.21-9.52 5.48-3.4.02-5.96-2.4-8.96-3.52l-1.34 1.85c-2.59.05-.84-4.4.66-5.24.73-2.66-.46-5.19-1.32-7.64 1.01-3.2 2.53-6.43 5.64-8.07 1.87-.6 3.77-1.2 5.36-2.4a38.08 38.08 0 0 1 4.25-6zM85.02 233.93c-1.1-8.03-2.07-16.43.6-24.27 2.89 25.14 9.87 50.38 24.09 71.57 3.36 4.69 1.03 11 2.08 16.35-2.92.5-5.89.48-8.74-.36-3.5-4.89-4.8-10.85-6.81-16.42-4.84-15.32-8.87-30.95-11.22-46.87zM197.4 248.13c-10.01-9.56-10.68-25.61-5.24-37.7 1.66 1.71 3.74 2.87 5.82 3.98-.75 1.51-1.94 2.82-2.32 4.5.21 1.57.68 3.1.83 4.69-1.23 2.43-3.28 4.6-3.12 7.53.66 3.21 4.57 4.43 4.99 7.83-1.83 2.37-2.04 5.56-.06 7.92l-.9 1.25z"/><path fill="#fff" d="M294.03 216.02c1.08-.62 2.16-1.4 3.44-1.51.85.93 1.07 2.19 1.43 3.36-1.3.48-2.67.65-4.05.63l-.82-2.48zM199.42 218.58a7.4 7.4 0 0 1 5.88-1.2l1.16 3.01c4.79-2.14 10.1 1.73 10.18 6.85-.73.98-1.48 1.95-2.22 2.92-.5 3.04.89 5.76 2.61 8.15-.56 1.98-3.57 5.02-5.04 2.07a87.78 87.78 0 0 0-5.18 2.23c-1.85-1.68-3.89-3.13-5.89-4.61-.79-1.44-.74-3.18-1.09-4.74-.86-1.29-1.99-2.6-1.81-4.27-.06-2.1 2.24-3.04 2.74-4.92-.27-1.87-.87-3.67-1.34-5.49m1.83 6.48c-.81 4.35-1.84 9.59 1.63 13.1a8.96 8.96 0 0 0 9.34 1.21 5.84 5.84 0 0 0 1.41-5.22c-1.14-4.65-3.75-9.92-9.04-10.65.05 2.79 2.98 3.54 4.24 5.6 1.61 2.23 2.14 4.96 2.83 7.56l-1.85-.15a22.32 22.32 0 0 1-5.88-13.92c-1.35.33-2.62.9-2.68 2.47zM250.37 219.96c3.07-.19 6.16-.74 9.23-.47 4.08 2.81 5.7 7.88 6.11 12.6-4.49-.42-8.8-1.8-13.19-2.76a22.89 22.89 0 0 1-2.15-9.37zM227.02 226.73c1.72-2.65 3.83-6.23 7.53-5.58.76 2.32-.01 4.58-1.05 6.67-1.95-1.31-4.28-.93-6.48-1.09zM278.17 224.05c1.57-.48 3.17-.79 4.8-.98-.14 1.91.52 5.06-2.07 5.53-2.71.47-2.79-2.71-2.73-4.55zM95.1 229.23a314.1 314.1 0 0 1 13.57 11.11c.86 9.63 1.36 19.28 2.18 28.9-7.84-12.07-13.66-25.71-15.75-40.01z"/><path fill="#fff" d="M207.67 237.87c-3.24-.74-5.04-3.8-4.6-7.04 1.44 2.4 2.96 4.76 4.6 7.04zM257.08 248.25c-.53-2.27.4-5.44 3.26-3.63 1.65 2.43-1.06 3.97-3.26 3.63zM216.11 245.2c2.7 2.94 6.86 4.84 10.81 3.25a67.22 67.22 0 0 0-3.12 18.34c-4.57-4.85-8.04-11.09-8.52-17.83l-.98-.51 1.29.13.52-3.38zM201.67 248.14c3.25-.49 6.5-.11 9.67.65 1.47 3.7 2.89 7.61 2.15 11.66l-1.66-.14c-1.72-1.69-3.91-2.16-6.25-1.87.29-3.89-.06-8.28-3.91-10.3zM233.28 257.88c.84-.98 1.75-1.91 2.72-2.78l2.1 2.96-.82 2.27-1.36.06-2.64-2.51zM248.56 261.95c-.57-2.39.24-4.14 2.79-4.71.53 1.44 1.5 3.01.5 4.5l-3.29.21z"/><path fill="#fff" d="M350.02 283.3c11.59-5.41 22.08-13.59 29.17-24.33a86.61 86.61 0 0 1 6.65 8.13c2.02 3.42 3.91 6.97 4.78 10.88 1.34 5.36 3.86 10.5 3.94 16.11.15 2.77-1.85 4.97-2.87 7.39-1.51 3.72-2.91 7.73-2.26 11.81 1.14-1.14 2.24-2.33 3.35-3.49l1.73-2.71c3.17 8.8-2.19 17.51-2.39 26.32-.21 7.53-.23 15.06.09 22.59 1.02 12.82-7.46 24.29-7.05 37.01-.25 1.97 1.94.17 2.16-.56 2.67-4.06 4.46-8.6 6.84-12.82 3.42 8.31 6.08 16.91 8.67 25.51a38.78 38.78 0 0 1 1.8 12.43c-6.43 6.93-16.01 9.12-24.63 12.04-14.67 4.29-29.74 7.39-44.99 8.58-5.01.08-10.22.48-15.03-1.23-7.75-2.45-15.95-2.52-23.99-2.91-10.35-.36-20.73-.59-31.06.15a296.65 296.65 0 0 1-35.95 3.54 51.7 51.7 0 0 1-15.53-1.47c2.59-18.12-.77-36.39-5.13-53.96 3.34-.05 5.94 2.17 8.67 3.76 1.03.67 2.27 1.27 2.54 2.6-.05-.97.26-1.81.92-2.52-19-11.96-32.86-30.79-40.87-51.58a155.82 155.82 0 0 1-10.33-48.62c-.4-7-.08-14.07 1.45-20.93 3.74 1.48 6.93 3.99 10.53 5.74-.07 2.44.13 4.89.69 7.28l.35-2.04h1.71c-.21-1.63-.4-3.27-.57-4.89 4.18.27 8.4.78 12.57.09 4.22-.49 8.1-2.34 12.18-3.43 1.7.68 3.44 1.2 5.21 1.67l.09-2.9c1.58-.63 3.15-1.26 4.71-1.92 2.06 3.04 4.24 6.28 7.83 7.64.37-1.81.64-3.64.9-5.46 7.51 1.32 15.16 1.97 22.54 3.99 2.14.52 4.25 1.7 6.51 1.4 1.92-.67 3.09-2.42 4.32-3.92 1.01-1.21 1.91-3.92 3.78-2.3 15.99 8.91 32.98 16.71 51.26 19.34l.25 2.68c2.83-3.74 7.71-1.37 11.59-1.48 1.25 1.28 1.91 4.25 4.36 2.99l-1.13-3.08c6.62-.32 13.33-.96 19.64-3.12m9.87 41.67c-5.6 3.42-11.42 6.49-16.82 10.22-3.36 4.3-7.05 8.41-11.59 11.51-10.93 8.69-23.1 16.17-32.23 26.89 17.25-4.58 30.44-17.4 42.3-30.04 3.48-4.4 8.86-6.45 12.92-10.17 4.79-4.27 10.21-8.04 13.69-13.55-3.01 1.29-5.48 3.47-8.27 5.14m-138.27 15.85c-.36 1.98-1.87 4.65.22 6.19 2.57 2.47 6.33 2.48 9.66 2.54.99-1.1 1.68-2.97 3.38-3.08 7.86-.96 15.18 2.84 22.66 4.58l-.03-2.05c-10.68-6.1-23.44-11.63-35.89-8.18zM116.26 289.94c1.2 1.44 2.39 2.89 3.54 4.37l-3.61.56c.01-1.65.04-3.29.07-4.93zM121.56 297.34l1.17.05c3.27 3.73 7.27 6.67 10.75 10.17-5.82 15.62-9.55 31.96-12.42 48.37-2.94 18.86-4.19 38.23-1.14 57.17a2.3 2.3 0 0 0 1.61 2.31 3.71 3.71 0 0 0-.45 3.64 91.45 91.45 0 0 0 5.52 16.56c-1.54.92-3.09.54-4.41-.47l1.97 1.85a34.98 34.98 0 0 1-15.35-2.37c-4.55-8.83-7.07-18.6-8.28-28.42-.5 2.34-1.05 4.74-2.46 6.72-.37-5.69-1.84-11.24-2.23-16.93-2.55-25.5-.46-52.17 10.49-75.65a97.78 97.78 0 0 1 15.23-23zM105.27 302.81c1.76-.33 3.55-.53 5.34-.52l-.08 3.53c-1.96.51-3.92 1.02-5.92 1.34.2-1.45.42-2.91.66-4.35z"/><path fill="#fff" d="M400.35 305.92c9.36 20.64 19.44 40.96 29.03 61.5l1.54.51-1.24-.01c4.88 10.57 10.03 21.02 14.95 31.57 2.02 4.47 4.54 8.75 6.02 13.45-7.84-.5-18.05-.14-22.67-7.84-10.33-16.32-18.45-33.95-28.85-50.25-.94-8.8-.78-17.87-.5-26.78.81-7.36 1.39-14.75 1.72-22.15zM137.59 311.24c1.39.62 2.9 1.09 4.06 2.13.35 4.83-.03 9.69.03 14.53-4.63 6.47-8.46 13.99-8.71 22.09-.19 5.85 4.72 10.6 10.24 11.59 3.92.64 6.18 4.3 9.74 5.77 4.62 2.74 11.09 3.15 15-1.07 2.1.39 4.18.88 6.25 1.44 2-.76 3.27-2.4 4.38-4.14l2.34-.18c-1.46 8.87-4.82 17.52-4.4 26.62l2.19.52c.83 15.83-.29 31.8 1.68 47.57-5.46 4.42-12.55 5.98-19.36 6.9-4.25.5-8.62.41-12.74-.86-1.77-8.65-3.2-17.4-3.69-26.23.04-2.79-2.21-4.81-3.34-7.17-1.82-2.62-.41-5.83-.44-8.72.54-11.52 1.51-23.06 1.07-34.59-1.02.51-1.54 1.31-1.53 2.4-.88 13.07-1.75 26.14-2.66 39.21-.67 3.06 2.4 5.16 2.65 8.07.91 7.69 1.91 15.36 3.2 23l-1.22.34c1.79.09 2.32 2.03 1.79 3.49-3.2-.4-6.3-1.32-9.49-1.8-1.86-3.42-2.46-7.32-3.26-11.07-2.85-15.53-3.95-31.32-4.35-47.08-.25-18.43.81-37.03 5.15-55 1.33-5.58 3.5-10.9 5.67-16.19l-.25-1.57z"/><path fill="#fff" d="M147.7 319.12c6.18 1.43 12.46 2.77 18.85 2.34.57 2.17 1.15 4.33 1.65 6.52-6.65 4.2-14.46.83-20.5-2.82.05-2.01.08-4.03 0-6.04zM144.8 331.32c7.36 2.61 15.61 6.7 23.31 2.97l1.87-2.15c4.69 6.31 7.13 13.89 11.35 20.48 1.65 1.82-.56 3.87-1.94 4.96l-.19-1.57c-7.27-.71-7.6-9.92-13.56-12.79.49 6.46 4.54 11.81 9.02 16.17a29.9 29.9 0 0 1-4.52 3.06c-1.73-.58-3.67-.84-5.06-2.13-3.68-3.1-4.23-8.16-6.33-12.23-.31-1.11-1.35-1.56-2.25-2.04-1.37 6.19 2.86 11.51 5.14 16.87a3.73 3.73 0 0 1-4.68 1.51c-5.17-1.8-8.04-6.92-10.32-11.54l-1.48 1.84 1.01-1.69c-1.36-3.06-1.65-6.41-1.81-9.7-1.28-1.16-2.57.41-2.66 1.69-.73 4.09.38 8.15 1.56 12.03-1.21-.17-2.41-.35-3.61-.54-3.17-4.89-2.48-11.13-.85-16.44.85-3.58 3.75-6.03 6-8.76zM398.45 364.21c1.69 3.65 3.81 7.09 5.79 10.58 4.69 8.34 9.33 16.72 13.79 25.18 1.45 3.11 3.59 6.07 3.71 9.62-3.3.05-6.53-.77-9.82-.74l-2.51-1.13c.26-.71.54-1.41.82-2.11-3.84-11.12-7.2-22.4-10.92-33.57-.96-2.5-.81-5.2-.86-7.83zM464.8 390.65a27.59 27.59 0 0 0 7.19 3.82c-.65 1.26-1.32 2.51-1.94 3.79l-2.7.83c-.89-2.8-1.73-5.62-2.55-8.44zM98.5 413.36l1.62.85c.44 6.87 3.24 13.33 5.56 19.75-4.17-6.11-5.43-13.56-7.18-20.6zM372.27 438.44c3.94-1.03 7.89-2.01 11.87-2.87.95 6.14 1.85 12.51.3 18.64-1.64 1.49-3.54 2.73-5.87 2.51a47.24 47.24 0 0 1-1.62-5.28c-7.11 2.46-11.31 9.18-17.31 13.32-11.55 8.19-26 10.37-39.79 11.42-3.21.34-6.37-.55-9.28-1.82-3.24-3.11-2.6-7.94-.79-11.63 2.08-4.6 5.14-8.63 8.01-12.74-1.38 3.97-3.64 8.57-1.24 12.63 2.69 4.1 8.24 4.16 12.61 3.8 17.57-1.99 34.51-12.35 43.11-27.98zM76.75 448.12c7.65-5.14 16.46-8.27 25.19-11.01 3.46.39 6.65 2.06 10.12 2.45l.4-1.23c.25 1.34 1.13 1.98 2.61 1.9 4.63.84 9.52 1.72 14.09.14l.16 2.21c-2.4 3.43-6.52 4.86-10.36 5.99-14.08 3.46-28.72 3.09-43.11 2.74l.9-3.19z"/><path fill="#fff" d="M328.29 445.05c11.68-.94 23.33-2.2 34.81-4.61-2.25 5.4-7.41 8.68-12.2 11.59-7.43 3.79-15.06 7.4-23.16 9.48-2.69.57-7.79.45-7.26-3.46 1.04-5.11 5.06-8.78 7.81-13zM234.39 443.61c9-1.41 18.24-2.18 27.38-2.6-7.36 9.91-19.81 14.24-31.49 16.42-.82-4.98 1.9-9.58 4.11-13.82z"/><path fill="#fff" d="M268.62 443.54c4.58-4.54 11.5-2.31 17.19-2.16-.51 4.88-.68 9.95-2.73 14.5-.8 1.73-2.61 2.44-4.39 2.57l-1.16-1.4c.26-2.81 1.71-6.1-.2-8.58-2.55.05-4.3 2.25-6.24 3.62-10.68 8.97-23.13 16.38-37.02 18.86-5.96 1.17-12.08 1.24-18.13.93-2.75-1.1-2.25-4.53-1.52-6.8 1.91-5.72 5.51-10.69 9.29-15.32a9.26 9.26 0 0 1 3.95-3.08c-.97 4.85-4.2 9.66-2.21 14.71 4.62 3.03 10.31.78 15-.91 10.05-4.4 19.95-9.56 28.17-16.94zM181.91 442.01c.21 1.22.48 2.66-.64 3.56-11.76 10.43-26.96 16.14-42.26 18.88-6.66.97-13.41 1.95-20.14 1.24 1.52-3.27 4.89-4.77 7.55-6.93l.41-1.75-.12 1.72 2.51-1.57c4.22-2.28 8.36-4.7 12.72-6.69 2.5-1.41 5.4-.08 8.09-.28 10.84-.11 22.1-1.38 31.74-6.69l.14-1.49z"/><g fill="#050505"><path d="M315.41 5.36c2.32-2.35 6.39-1.53 8.44.79 1.94 1.67 3.09 4.16 5.18 5.63 2.74.54 5.2-1.72 7.92-2.07 4.75.97 8.9 3.65 12.22 7.12 2.97.59 6.51.87 8.13 3.84 1.31 2.54 4.38 2.89 6.27 4.8 1.96 2.13 5.16 2 7.71 3l-.22-1.11 2.37.47c-.82.28-1.63.57-2.44.88 8.94 3.77 16.69 10.09 22.71 17.64 6.91 10.19 11.53 21.79 14.81 33.6l.83-.82a7.12 7.12 0 0 0 .07 3.31c8.53 31.4 11.34 64.17 10.46 96.63-1.85 22.62-10.59 43.87-18.9 64.76-.62 1.97-1.97 3.92-1.45 6.07 1.06 5.87 4.36 11 6.01 16.69 1.43 4.87 2.74 9.9 5.47 14.24 1.7 2.9 4.9 4.56 6.38 7.62 7.38 14.45 12.86 29.76 19.14 44.69 8.41 14.13 14.72 29.36 21.66 44.23l.26 1.35c.46-1.98 2.85-2.02 4.42-2.6 6.65-2.04 13.54.22 20.32-.37l.37 2.13 1.47-1.49c2.52 1.47 4.7 3.44 7.04 5.16 4.48-.34 8.86.36 12.92 2.33 6.42.4 13.44 2.46 16.58 8.62 5.14 3.61 11.53 6.25 14.8 11.96 1.22 1.96.56 4.26-.16 6.27-9.8 5.22-22.43 2.5-31.28 9.77-3.49 1.06-6.35-1.48-9.21-2.96-1.58 3.09-3.67 6.92-7.59 7.16-5.96.69-9.62-4.93-14.08-7.62-1.87 1.75-3.47 4.16-6.15 4.69-4.32 1.05-8.84-.48-12.08-3.39-9.44 2.76-18.95-.83-27.79-3.97-4.68 1.08-9.36 2.51-14.25 2.15.24 2.54 2.73 6.25-.27 8-6.91 4.53-15.07 6.5-22.8 9.11.61 6.48 1.02 13.08 0 19.54-.21 3.88-3.88 6.05-6.55 8.27-4.13 1.75-8.67 1.83-13.02 1-7.71 9.25-19.63 13.74-31.12 16.14-7.91 1.84-16.04 1.36-24.09 1.37-4.22-.22-9.16-.56-11.95-4.19-2.31-4.39-.53-9.57 1.41-13.74a98.99 98.99 0 0 1 9.79-14.77c.53-.61 1.07-1.21 1.61-1.8-8.61-2.53-17.6-3.29-26.52-3.8l.13-1.64c-1.89 5.78-1.3 12.07-3.2 17.85-1.02 2.99-3.88 5.27-7.11 5.15-2.62.05-6.56-.36-7.18-3.5-11.73 9.15-25.98 14.68-40.41 17.92l.2 1.09c-2.45-1.39-5.2-.31-7.81-.21-5.2.36-10.75-.17-15.11-3.29-2.7-5.45.02-11.41 2.81-16.22 3.23-5.09 6.49-10.29 10.99-14.38a86.9 86.9 0 0 1-1.27-.78c-2.76.08-5.53-.05-8.28.22l-1.49.84c.03-2.37-3.77-1.52-3.83-3.74-1.33-15.33-.76-30.87-3.74-46.04-2.04-10.83-5.17-22.58-14.19-29.76-1.53 5.56-6.36 10.85-4.08 16.88 2.45 11.11 1.31 22.59 1.31 33.87-.22 7.02-.51 14.05-.73 21.07-.47 2.9 2.18 5.2 1.72 8.11a35.1 35.1 0 0 1-2.45 9.7c-3.75 1.71-7.98 1.1-11.93 1.87-7.23 6.45-16.53 9.88-25.71 12.52-8.74 2.23-17.84 3.95-26.88 2.81-3.3-.36-6.51-1.74-8.68-4.32.78-7.54 8.17-11.71 13.78-15.66-15.92 4.44-32.66 6.32-49.14 4.93-4.1-.32-8.25-1.22-11.59-3.75.06-4.05 3.66-6.48 6.55-8.67 7.84-5.09 16.83-8.17 25.91-10.16-9.1-22.17-13.6-46.45-10.96-70.38 1.71-18.22 8.19-35.47 14.77-52.38-13.84-30.31-25.46-62.8-24.92-96.57-.1-6.4.82-12.73 1.34-19.09.6-3.43-2.11-6.07-2.84-9.23-1.46-5.49-3.07-11.45-.87-16.98-10.92-.46-21.36-5.44-29.08-13.08-8.77-8.58-14.66-19.75-18.29-31.39l-2.07.25 2.36-.53c-1.73-2.75-5.21-3.47-7.55-5.6-2.26-3.27-3.47-7.06-4.1-10.95l-.6.61-.45.53a70.2 70.2 0 0 0-1.54-.59c-1.36-1.41-3.22-2.15-4.88-3.12-3.29-3.6-6.93-7.67-7.11-12.82-.24-4.94-.51-10.35 2.52-14.59l3.19-1.24c.18 3.2.45 6.45 1.74 9.43 2.99 2.21 7.18 2.48 9.83-.45 2.57-6.56 1.47-13.8 2.37-20.66 1.81-4.52 6.86-6.42 10.9-8.47.25-5.25 1.88-10.27 3.42-15.25.73-2.57 2.44-5.04 5.01-6.01 4.44-1.14 8.82.79 13 2.07.63-1.26 1.31-2.5 1.95-3.76 1.8-1.4 3.52-3.47 6.01-3.41 7.09-.54 13.49 3.31 19.2 7.05 5.07 3.03 10.85 4.49 16.64 5.4 6.23.95 11.17 5.2 15.46 9.52 2.93 3.2 4.73 7.25 7.67 10.42l.55.63-.22.32c.04 1.73.86 3.29 1.44 4.89 2.53 6.46 3.48 13.39 4.24 20.24 2.76 2.79 7.01 5.29 6.85 9.76.3 5.06-3.39 8.91-7.02 11.86.15 3.44.92 6.97-.19 10.34-1.2 4.3-1.08 8.81-1.11 13.23 9.98.71 20.02 2.49 29.06 6.96 15.21 7.72 27.44 20.36 36.42 34.72 1.55-.12 3.11-.25 4.66-.43-1.03-3.23-2.38-6.45-2.39-9.9 2.4 1.16 3.03 3.82 4.11 6.02 2.42-.92 4.41-2.68 6.76-3.76 0-3.38.75-6.7 1.02-10.06.4-3.65 3.85-5.7 6.55-7.66.7-2.03 1.07-4.28 2.31-6.07 3.38-2.87 8.08-2.39 12.2-2.24 1.54.11 2.67-1.03 3.8-1.88 4.12-.76 8.4.62 11.12 3.84 1.17.96 2.27 3.51 4.06 2.37 3.94-2.66 7.76-5.6 12.34-7.11l-.09-1.27c-6.14-6.73-7.72-16.24-8.64-24.99-.12-3.06-1.55-5.8-2.55-8.62a48.01 48.01 0 0 0-4.94 3.15l-2.33.02c1.55-2.57 4.16-4.08 6.92-5.08.06-2.63.29-5.25.68-7.85a13.2 13.2 0 0 0-7.13-1.98l.46-1.78c2.59-.23 5.1.47 7.57 1.14.83-2.09 1.69-4.16 2.36-6.3-4.71 1-10-.29-14.35 1.9-3.76.95-7-1.32-8.4-4.73l1.95-.33-2.08.1c-.44-3.76-.37-8.58 3.27-10.78 2.51-1.75 6.84-1.19 8.05 1.84 6.9-.11 13.82-.06 20.71-.6 2.46-.44 3.18-3.1 4.28-4.96 2.19-3.85 1.56-8.5 3.24-12.53a53.82 53.82 0 0 1 8.17-13.82c-2.64-2.75-3.16-7.38-.58-10.33-.63-3.91 2.09-7.04 5.09-9.09 1.68-6.19 7.37-11.14 13.65-12.23 3.7-.71 8.53 1.42 11.25-2.1 2.63-3.54 7.44-3.26 11.32-2.62m1.94 1.02c-.26 2.12-.52 4.25-.89 6.36l-1.93-.02c-.98-2.95-3.74-4.28-6.68-4.31-.42 3.02-1.09 6.02-2.6 8.7l-1.38 1.31-1.08-1.03c-2.18-2.31-4.64-4.84-8.04-5-2.07 2.23-.96 5.66-2.29 8.3l-.3-3.24c-2.2-.24-4.42-.39-6.64-.34-.64 2.27 0 4.46.96 6.53-2.48.71-5.72 1.38-6.7 4.15-1.05 3-.79 6.32-.14 9.39 2.58-.94 5.47-1.49 7.39-3.62 2.86-1.02 5.86-1.63 8.71-2.69a18.03 18.03 0 0 1 5.04-4.65 199.2 199.2 0 0 1 4.36 3.9c2.94 1.07 6.1 1 9.1.29 1.68-2.19 2.85-4.91 5.34-6.33.34 2.29-.4 5.14 1.44 6.93 2.02 1.28 4.54 1.43 6.85 1.04a41.44 41.44 0 0 1 3.15-3.86c.52 1.2 1.07 2.39 1.58 3.6l-1.44 1.18c.77 2.26 2.43 4 4.81 4.4 2-.19 3.99-.55 6-.69-.24 2.79-1.66 5.93.5 8.35 1.12 2.26 3.92 2.22 6.07 2.67-.87 2.09-1.52 4.27-1.37 6.56 1.69 1.09 3.56 1.91 5.2 3.11.7 2.94-2.62 5.63-1.39 8.61.25 2.93 3.87 2.04 5.82 2.51-.89 2.36-3.16 4.73-2.32 7.42.35 2.3 2.29 3.68 3.74 5.29-.98 2.32-4.01 3.02-4.63 5.56.22 2 1.77 4.43 4.06 3.97-1.44 1.83-3.09 3.5-4.36 5.45-.51 2.18 1.68 2.19 3.19 2.52l.33 2.6c2.09.02 4.19.07 6.28.27a27.74 27.74 0 0 0 4.14 6.92l2.23-.01c2.39-2.49.81-5.96.97-8.99 2.91.87 7.21 2.49 8.12-1.83-1.2-.63-1.12-1.78-.52-2.79a28.72 28.72 0 0 1-2.1-3.07c4.57.25 4.42-5.23 3.12-8.23l-4.56.88c-.67-.79-3.5-1.09-2.06-2.46a15.61 15.61 0 0 0 5.98-8.31c-1.21-.73-.89-1.92-.2-2.88-2.29.42-3.01-1.8-4.06-3.2l2.71-1.16c.03-1.57-.01-3.14-.14-4.7-1.76.18-3.52.15-5.25-.22-.18-1.37-.53-2.95 1.38-3.12 3.26-.58 3.31-3.83 3.08-6.45-3.09-2.22-7.07-1.8-10.44-3.26-.3-2.7 3.65-3.89 2.6-6.86-1.88-.98-3.83-1.87-5.46-3.23-.51-2.33.31-5.04-1.3-7.04-.94-1.6-2.99-1.65-4.54-2.27-.63-1.73-1.07-3.56-2.11-5.1-1.85-.91-3.88-1.37-5.81-2.04l-1.12-3.19c-2.52-.27-3.41 3.24-6.01 2.37-3.09-.96-1.89-4.44-2.22-6.9-1.39-.66-2.75-1.36-4.14-2.02-1.15 2.28-2.67 4.5-5.32 5.08-.98-1.25-1.98-2.49-3-3.7-1.17.35-2.33.76-3.55.81-.66-2.26-1.2-4.56-2.14-6.73l-4.02-1.49m-2.09 24.96l.69 1.66c-4.32 2.48-9.28 2.37-14.06 2.11-6.32 1.13-12.64 3.15-17.9 6.94-6.68 4-12.16 10.77-12.73 18.76.86 1.1 1.65 2.25 2.42 3.42-2 1.75-4.28 3.11-6.4 4.69l.41 3.75c3.74.55 7.54.25 11.29-.1 1.78-.54 3.21-1.9 5.02-2.39 4.18 1.03 8.4 2.99 10.92 6.65 5.23-.26 10.57-3.29 15.63-.28l-.04.65c3.98 3.96 5.81 9.36 6.97 14.72 1.2-.7 2.41-1.39 3.61-2.1l-2.39-1.6c2.4-1.78 5.31-1.16 7.69.28a12.3 12.3 0 0 1 1.86 9.11c-1.46-1.06-2.82-2.24-4.29-3.28-2.38-.27-4.62 1.45-7.07.87-4.74-.97-8.92 1.74-13.22 3.2-6.96 2.66-15.51 3.5-21.8-1.22-4.17-3.44-7.86-8.01-9.11-13.37-3.94.65-7.94.75-11.9 1.12-2.85.17-4.54 2.77-6.03 4.87a20.77 20.77 0 0 0-1.78 15.22c1.03 4.08.45 8.37 1.56 12.44 2.29 8.45 7.97 15.59 14.64 21.09 3.18 2.69 6.36 5.98 10.74 6.4 4.56.49 9.97.51 13.15 4.39-2.68-.01-5.34.32-7.87 1.23 1.28 4.87 6.9 7.79 11.64 6.62 3.92-.55 7.79-1.67 11.02-4.04l-.64-1.88 1.07 1.33c1.85-.31 4.11-.42 4.09-2.85l-4.07-.29-.92-2.11a53.3 53.3 0 0 0 18.3-3.64c7.32-3.78 14.11-8.7 19.49-14.98a41.35 41.35 0 0 0-3.8-5.56l.29-.88.68 1.51c4.68.09 9.77-.09 13.96-2.42.84-.84 1.71-1.66 2.59-2.47 2.22-3.29 4.78-7.32 3.44-11.43-2.31-3.48-6.94-2.55-10.36-1.64.3-1.3.48-2.6.54-3.92-.78-1.02-1.72-1.88-2.45-2.94.32-2.2 1.45-4.14 2.34-6.14-.78-1.28-1.64-2.51-2.31-3.85-.86-2.57.9-4.89 1.72-7.2a19.05 19.05 0 0 1-1.01-9.72c-1.02-1.35-2.26-2.52-3.08-4.01-.51-2.03.3-4.02.77-5.97a16.06 16.06 0 0 1-5.97-12.05c-3.47-1.73-4.87-5.43-5.32-9.06-1.97.18-4.11.63-5.95-.36-2.02-.94-2.43-3.36-3.85-4.87-2.33-.16-4.7.15-7-.31-1.96-1.06-3.59-2.61-5.22-4.1m48.66 2.17c1.42 1.13 2.89 2.21 4.34 3.31 2.68 2.43 3.79 5.92 3.63 9.46 2.59 1.54 5.75 2.53 7.54 5.1 1.4 2.68-.69 5.15-1.78 7.48 1.9 3.43 3.83 7.11 3.62 11.16-.1 2.8-1.65 5.27-2.01 8.01.48 3.32 3.02 5.85 4.28 8.89-.58 2.04-1.54 3.94-2.22 5.94-.12 2.43.08 4.87-.18 7.29-.51 2.06-2.4 3.21-3.58 4.83-.79 2.72-1.66 5.43-3.16 7.85 2.76 17.93 6.54 35.81 7.6 53.91 1.8 3.06 3.67 6.13 4.56 9.62 1.61-.64 3.2-1.31 4.74-2.11a21 21 0 0 1 2.92 1.47c-2.29 1.21-4.53 2.53-6.8 3.78.36 1.61.7 3.23 1.05 4.85 1.76-.05 3.53-.12 5.3-.19l-.03 2.33c-2.15.26-5.08-.17-4.73 2.98 2.54-.06 5.08-.18 7.62-.08l-1.19 1.88c-1.8.39-3.59.81-5.38 1.18 1.77 10.08 1.44 20.33 1.47 30.52 1.56.49 3.34.99 3.73 2.85-1.47-.1-2.94-.22-4.41-.36-.18 2.87-1.02 5.66-1.11 8.52 1.08 1.2 2.23 2.3 3.18 3.61-1.43-.1-2.86-.23-4.28-.39a62.51 62.51 0 0 1-5.06 13.96c5.3 8.37 11.32 16.3 16.32 24.88 3.14 7.36-1.09 15.8 2.37 23.1 5.21 13.96 11.43 27.51 17.48 41.12 10.06 21.54 20.15 43.1 31.8 63.84 2.48 4.2 5.05 8.7 9.32 11.31 3.06 1.28 6.36.18 9.23-1.07 1.82-3.18 3.69-6.45 6.66-8.7l3.85.31c-1.03 1.09-2.12 2.12-3.19 3.16 2.6 3.58 4.98 7.49 8.57 10.18l3.46.22c2.52-1.67 3.76-4.36 4.97-7.01 1.43-.25 2.87-.4 4.33-.47.66.48.3.9-1.1 1.26l2.14.42.65-1.03c2.02.21 3.47 2.3 5.51 2.2 3.3-1.42 6.55-3.09 10.19-3.46 6.37-.85 12.17-3.93 18.5-4.95-2.04-.84-3.27-2.79-4.89-4.17-2.42-2.54-6.27-2.83-8.83-5.16-1.75-1.64-2.28-4.49-4.68-5.37-3.83-1.63-7.8-2.89-11.77-4.11-3.41-1.09-7.07.2-10.46-.98-5.4-1.69-9.87-5.36-15.01-7.62-3.88-.67-8.53-1.38-11.84 1.27a23.7 23.7 0 0 1-6.04 1.73c.38 2.62 1.5 5.97 4.18 6.94 2.12 1.02 4.26 2.35 6.72 2.17 2.98-.14 6.83-.65 8.75 2.23 2.5 3.45 4.65 7.15 7.27 10.52a42.23 42.23 0 0 0 5.78-5.07c-1.25-.52-2.5-1.03-3.73-1.56a40.13 40.13 0 0 0-4.14-3.02c4.04.44 8.19.51 12.08 1.77 4.31 1.83 5.83 6.81 9.6 9.28 2.66.79 5.45-.61 8.18.05-3.15 1.6-5.3 5.11-8.91 5.66-3.98-2.17-6.23-7.48-11.24-7.86a32.86 32.86 0 0 1-8.65 7.59c-2.32-2.95-3.78-6.46-6.09-9.41-1.1-1.34-2.05-3.21-3.98-3.37-3.01 3.54-4.41 9.1-9.57 10.31-18.26-38.98-36.38-78.04-54.89-116.91-1.04-2.72-4.15-3.61-5.77-5.87-5.42-6.25-5.79-14.93-9.4-22.09-2.84-6.56-6.55-14.34-3.03-21.33 4.67-8.37 8.02-17.38 11.34-26.34 8.84-25.85 11.11-53.62 8.38-80.72-3.49-19.81-7.67-39.53-13.23-58.88-2.35-7.82-4.71-15.85-9.41-22.65-6.01-8.04-14.36-13.98-23.2-18.55-1.34-.68-2.81-1.04-4.24-1.44M61.85 35.82c-5.3 1.89-8.27 7.11-13.22 9.58l-4.02.08-.33-1.7c2.48-.21 5.09-1.12 5.84-3.75-2.99-2.93-9.27-3.1-10.94 1.35-3.79 6.33-.32 14.75-5.38 20.53-2.1 3.38-6.78 3.51-9.12 6.57-2.04 2.88.5 6.32-.85 9.32-1.53 4.39-.69 10.19-4.96 13.2-2.65 2.42-6.54 1.3-9.18-.52-2.06-2-3.63-4.5-3.29-7.49C5.09 89 5.09 96.63 10.07 101c4.84 2.93 12.41 3.1 16.28-1.52 3.94-5.68 1.54-12.98 4-19.13 1.31-2.68 3.76-4.51 6.38-5.79 2.42 0 4.99 1.1 7.32.12 2.52-1.77 4.74-4.51 4.7-7.74.02-2.8 2.07-4.9 3.93-6.72 4.68.98 9.6.66 14.21-.52 3.72-2.24 5.87-6.28 9.06-9.13 4.85-1.36 11.14-1.53 14.56 2.86 3.68 3.33 3.28 8.69 2.94 13.19 7.32 1.67 14.45 4.05 21.82 5.55-1.31-5.73-3.56-11.34-7.26-15.96-4.85-5.65-11.51-9.95-18.93-11.15-2.96-.56-6.08-.3-8.94-1.35-2.62-1.6-4.3-4.3-6.67-6.21-3.12-2.77-7.84-3.18-11.62-1.68m8.3 25.32l-2.09 1.81c-5.45.08-10.84.95-16.27 1.25-.83 3.99-1.01 8.13-2.47 11.97-4.79 3.3-11.43 1.56-15.79 5.57-.79 2.69-1.54 5.43-1.52 8.26-.1 3 .68 6.16-.61 9.02-.92 1.93-2.44 3.49-3.88 5.05 2.82 18.34 9.82 37.23 24.41 49.44 13.32 11.51 31.96 15.31 49.09 12.78 1.54-.16 3.09.1 4.62.27 2.14-2.55 4.26-5.14 6.83-7.28 3.79-2.64 3.82-7.77 5.76-11.62-4.12 1.15-5.45 6.1-8.14 9.08l-.65-.34c6.61-10.99 12.21-23.27 11.83-36.37.03-4.07-1.48-7.96-1.43-12.03l1.1.75.79-2.74 1.19 1.96c4.42-2.88 6.5-9.18 3.98-13.95-2.2-3.49-6.55-4.4-10.34-4.93l-.74-2.66c-7.02-3.26-14.66-4.54-22.23-5.79l.82-3.36 3.71.72c7.07 1.86 14.26 3.53 20.98 6.47l-.35-3.26c-9.24-2.84-18.49-6.21-28.25-6.61l.48-2.46c8.81 1.39 17.81 2.31 26.24 5.37l-.52-2.98c-6.9-1.64-13.75-3.57-20.77-4.64-3.47-.62-7.18-.59-10.31-2.43 1.21-2.63 3.28-5.92 1.37-8.73-2.51-3.47-7.16-3.98-11.03-4.85a34.78 34.78 0 0 0-5.81 7.26m213.44 12.53l-.14 2.18.54-1.65c3.27 2.71 5.13 6.91 8.93 8.99 2.96.88 6.06-.99 9.09-.25 4.54.99 8.66 3.9 10.93 7.98.24-2.99-1.44-5.51-2.97-7.91-3.97-4.22-9.92-2.94-15.05-2.71-3.26-2.02-5.89-4.93-9.3-6.73l-2.03.1m-52.16 9.99c.96 1.45 2.51 1.34 3.44-.24l.74.65c-.13-2.52.11-5.03.06-7.55a28.98 28.98 0 0 1-2.02 4.47c-1.26-2.66.9-4.88 1.5-7.32-5.35-.84-6.93 6.88-3.72 9.99m8.52-.24c.35-2.35.91-4.82-.16-7.09-2.5 1.09-1.95 5.49.16 7.09m1.77-7.24l-.1 6.54c13.61-.77 27.07-3.17 40.64-4.3l-.79-3.06c-13.26.24-26.5.62-39.75.82m36.31 7.48c.66 5.22 4.45 9.33 8.82 11.93l.75-1.61-.41 1.96c7.48 2.56 15.34.06 21.94-3.68-2.36-5.28-8.92-6.29-14.05-5.5-2.62.85-4.55-1.38-6.72-2.39-3.15-1.87-6.9-.84-10.33-.71M19.58 107.07c.3 3.67 1.09 7.31 2.94 10.54l1.96-.03c.4-2.38.96-4.92.02-7.24-1.01-1.85-2.65-3.25-4.01-4.83l-.91 1.56m346.38 8.06c-.79 12.53-.3 25.09-.41 37.64 5.06 3.04 9.55 6.9 13.82 10.94a405.33 405.33 0 0 0-3.47-25.76c-.99-.56-2.4-1.86-.29-1.84a210.02 210.02 0 0 0-4.17-21.66c-1.82.27-3.65.48-5.48.68m-12.37 12.59c-3.36 4.83-2.14 10.77-2.49 16.29.61 1.61 2.78 1.81 4.1 2.74.87.46 1.75.93 2.64 1.38.44-7.28.3-14.57.67-21.85l-4.92 1.44m-10.78 13.15l4.02 1.39-.1-4.79c-1.48.92-2.87 2-3.92 3.4m-214.29-.31l-1.85 2.1-1.67 2.5a25.98 25.98 0 0 0-2.42 9.76c2.82 2.93 3.21 7.1 3.88 10.91 2.36-.88 4.69-1.91 6.61-3.58.84-.9 1.73-1.75 2.62-2.6.76-5.8.86-11.66.76-17.5-2.61-.7-5.26-1.2-7.93-1.59m12.64 2.96c-.44 8.24.38 16.57-1.15 24.73-1.9.31-5.37-.9-5.81 1.81-.64 1.81.29 2.77 2.09 2.97.56 1.73 1.22 3.67.21 5.39-4.93 7.7-7.22 16.67-10.62 25.08.28 1.06.65 2.1.83 3.18a32.7 32.7 0 0 1-1.65-1.44c-3.1 10.68-7.23 21.04-10.39 31.71-4.14 10.7-2.04 22.55.89 33.28.86 3.67 1.49 7.44 3.12 10.89a271 271 0 0 0 12.15 14.07c2.94 2.75 5.78 5.63 9.01 8.06.11-2.17.03-4.34-.22-6.49-2.08.32-.69-1.19-.03-1.99-1.48-31.12-3.42-62.24-4.37-93.37 1.32.02 2.63.05 3.95.1 2.13 12.04 2.61 24.27 3.63 36.43 1.63 23.02 2.99 46.06 4.5 69.09.15 1.73.11 3.84 1.83 4.85a16.04 16.04 0 0 0 15.72 2.55c-2.06-18.38-3.58-37.29.71-55.48-2.51-10.19-6.71-20.14-6.37-30.84-2.95.27-5.9.46-8.86.53l2.3-2.08c2.29-.24 4.57-.52 6.85-.81.18-1.97.41-3.92.66-5.88-4 .22-8.08.76-12-.36l2.96-1.82c3.23.06 6.47.13 9.7-.08.91-4.42 3.01-8.41 4.97-12.42-.88-1.3-1.93-2.48-2.86-3.73l-1.63-.87c.75-.56 1.51-1.87 2.6-1.18 1.12 1.13 2.01 2.46 3.04 3.66 3.54-4.81 7.13-9.64 11.55-13.67 2.07-2.01 4.42-3.76 6.15-6.11l1.25 1.58c-3.37-4.09-4.7-9.4-7.89-13.61-8.38-13.31-21.79-23.23-36.82-27.73m79.94 2.45c-3.15.49-4.05 3.4-4.34 6.19-2.23 1.93-4.35 4.11-5.42 6.92-.51 2.68 2.02 5.12 1.3 7.79-1.65 1.43-3.98 2.53-3.42 5.15 2 1.74 4.26 3.12 6.8 3.95 2.02-.93 4.08-1.78 6.09-2.75l.54-3.02c1.7 1.14 3.25 2.93 5.52 2.5a94.3 94.3 0 0 1 3.21-7.01c3.53 1.57 7.09-.48 10.06-2.31 2.16-1.3 3.82-3.71 3.09-6.32-.42-2.83-1.92-7.91-5.81-5.78l-3.48-3.68-4.27.14c2.45 4.8 3.06 10.84.74 15.8-2.77 5.76-10.72 6.14-15.81 3.53a6.32 6.32 0 0 1-3.13-8.03c2.09-5.37 6.7-9.87 12.28-11.46-1.18-.51-2.9-.66-2.6-2.36l-1.35.75m25.67 3.76c2.22.87 4.59 1.04 6.95.86.54-1.69 1.23-3.32 1.7-5.01-3.42-.93-7.15 1-8.65 4.15m13.03-3.03l-.38 2.32a14 14 0 0 0 4.02-1.03 16.8 16.8 0 0 1 10.59 8.96c2.7 3.49 7.7.07 10.77 2.61-2.34-3.26-4.13-6.89-6.56-10.08-5.01.2-9.13-2.6-13.24-5.05a96.13 96.13 0 0 0-5.2 2.27m69.38.46c-9.69 8.44-21.92 13.21-34.16 16.6.96.64 1.92 1.26 2.91 1.88 5.37-4.63 11.76.64 16.89 2.91.58 3.9-1.66 7.43-3.3 10.79-2.14 4.45-5.35 8.31-7.21 12.9l2.84 1.22c1.46-.83 3-1.72 3.52-3.44 4.89-12.31 14.83-22.04 26.25-28.45 5.72-3.25 11.95-5.44 17.79-8.46-6.27-4.16-13.55-6.22-20.76-8.01-1.79 0-3.26 1.24-4.77 2.06m-111.93 8.99c-1.99 2.41-3.33 5.76-1.16 8.51 3.93 1.26 8.57 2.38 12.14-.39 2.31-3.5 3.12-7.95 1.56-11.91-4.12 1.13-7.93 3.67-9.17 7.96 2.09-.62 4.02-1.66 6.02-2.52l-.07 2.69c-2.16 2.18-5.26 2.36-7.95 1.11l-.35-2.36c1.39-5.07 6.01-7.81 10.61-9.54-4.73-.18-8.83 2.9-11.63 6.45m33.74-2.84c-1.48-.03-2.96-.04-4.43-.01-.32 1.53-1.35 3.08-.86 4.68.92 1.07 2.06 1.9 3.22 2.71 3.25.44 5.95-.92 8.02-3.35.99.71 1.97 1.44 2.93 2.2 2.82-.62 5.76-.35 7.93 1.74l2.4.39c.34-1.32.69-2.63 1.05-3.94-1.76-1.09-3.81-1.23-5.81-1.38l.27-3.35c-2.83-2.32-6.16-1.05-9.17.07-1.01-2.95-4.15-1.44-5.55.24m77.93 20.59a81.7 81.7 0 0 0-12.11 13.76c-1.75 2.34-.85 5.41-.82 8.09l3.94.36-.73 1.69 1.07-1.08c2.7.38 5.22 1.5 7.81 2.34 5.03 2.13 11.11 3.15 14.59 7.77l-1.28 2.73c-6.62-.98-12.86-3.52-19.36-5.02 1.26 10.78 1.72 21.87-1.04 32.47-3.07 13.21-10.24 25.44-20.57 34.27a43.3 43.3 0 0 1-.89-1.02l.37 1.99c15.01 4.74 31.22 8.68 46.91 5.07 8.41-1.82 14.76-8.1 20.02-14.53 2.9-4.97 7.22-9.7 8-15.53l.7.76c7.68-19.15 11.14-40.43 6.94-60.83-1.33 1.3-2.67 2.57-4.06 3.8-.27-2.73 1.41-4.81 3.24-6.59-1.61-6.04-4.23-11.96-8.45-16.63a119.92 119.92 0 0 0-11.92-10.02c-12 2.42-23.13 8.17-32.36 16.15m-74.02-10.78c1.38-.26 2.75-.54 4.11-.85-.68-.63-1.35-1.27-2.09-1.82-1.79-.67-1.44 1.72-2.02 2.67m25.77-.81l-2.96.37-1.14 1.67c-1.57.44-3.57 1.61-1.67 3.13 2.84-1.6 5.51-4.93 9.1-3.93 2.86.46 2.53 4.25 1.78 6.34-1.48 4.4-2.97 9.26-6.78 12.24-2.24 1.8-5.26.84-7.88.97 1.46 3.29 4.65 5.55 8.38 4.69 1.89-2.37 4.72-2.74 7.57-2.52 3.97-1.27 4.37-6.14 3.54-9.59l3.16-.96c.95-1.72 1.73-3.94-.26-5.32-2.52-2.09-3.54-5.92-6.99-6.72-.8-1.03-1.62-2.04-2.45-3.04-1.15.87-2.28 1.76-3.4 2.67m-20.66.74c-.31 2.21 1.96 3.55 3.12 5.11-.15 1.4-.06 2.93-.99 4.11-2.98 4.59-6.14 9.11-10.02 12.99-1.49.82-3 1.63-4.46 2.49-.36-1.14-.63-2.32-.9-3.48-1.4-1.83-3.26-4.07-2.04-6.49 2.46-6.82 10.28-8.83 14.62-14.03-4.12 1.15-7.6 3.85-10.94 6.42-2.89 2.38-6.31 4.98-6.92 8.94-.81 2.99 1.55 6.21 4.54 6.7l.44 1.9c-2.78-.31-6.97-1.19-7.11-4.73.18-4.33 2.79-7.99 4.63-11.76 3.02-1.68 5.78-3.78 8.56-5.83a92.8 92.8 0 0 0-5.9-1.31c-.91 1.82-1.91 3.59-2.91 5.35-2.02.46-4.11.68-6.05 1.44-3.07 1.11-2.36 5.1-2.33 7.66-.98.88-2.05 1.67-3.21 2.29-.06 3.79 1.75 7.21 2.33 10.9 1.83 1.1 3.89 1.84 5.56 3.22 1.61 1.24 3.85 2.65 5.84 1.3 3.6-1.98 7.69-2.68 11.59-3.8 2.2-1.16 2.72-3.89 4.53-5.44 1.32-.76 2.92-.52 4.38-.72 2.81-1.85 2.88-5.41 1.61-8.23-1.24-2.1 1.67-3.1 2.88-4.25.76-.81 1.47-1.67 2.17-2.53-1.99-3.35-5.26-5.62-7.85-8.46-1.62-.51-4.19-1.84-5.17.24m-7.43 8.39c-3.07 3.21-6.79 6.61-6.8 11.42 3.07-.15 7.58.19 8-3.86-2.18-1-2.36-3.53-.94-5.23 1.94.23 3.82.93 5.78.99 1.7-2.11 2.9-4.6 3.22-7.31-3.65-.76-6.85 1.52-9.26 3.99m46.73-3.64c-.9 3.32-.88 6.84-1.96 10.1-2.63 5.1-7.12 8.94-9.68 14.08 1.6.28 3.19.63 4.75 1.1-2.45 3.96-6.18 6.84-9.63 9.88-3.85 3.15-7.78 6.56-12.74 7.8-2.81.83-6.17 2.78-6.09 6.12-.61 6.97 6.44 11.33 7.07 17.96-7.72-1.95-15.67-.26-22.92 2.59-2.4 3.07-4.22 6.78-7.66 8.87-2.26 1.22-4.81.85-7.19.25a20.9 20.9 0 0 0-3.87 15.4l.1-1.93 2.22-.02c.18-1.65.43-3.28.67-4.91 1.84-1.41 3.99-1.03 6.08-.47 1.5 2.41 1.35 5.23.71 7.9 5.11 2 10.64 6 16.28 3.8 5.36-4.17 6.22-11.41 8.26-17.45 3.21-7.48 10.16-12.58 17.31-16 8.23-3.78 15.93-8.59 23.41-13.65 2.41-8.18-4.45-14.76-6.4-22.11.09-8.84 5.04-16.8 10.75-23.23.23-4.96-6.21-4.51-9.47-6.08m-213.23 1.65c1.38.49 2.75 1.02 4.12 1.57l3.6-1.21c-2.47-1.07-5.13-.51-7.72-.36m192.08 1.76c-1.15 1.52-2.34 3.01-3.31 4.65 1.88-.81 3.7-1.74 5.63-2.44-.72 5.23-6.88 4.01-10.6 4.65 2.54 1.92 5.95 3.35 9.11 2.08 3.88-2.45 5.06-7.94 3.26-12.03a32.25 32.25 0 0 0-4.09 3.09m-151.47-.36c-1.25 5.2 1.59 10.47-.33 15.5-4.82.71-9.66-.13-14.33-1.31-.12 14.34.24 28.69.81 43.01 5.28-15.1 11.71-29.78 16.83-44.94 1.7-4.25.75-9.4-2.98-12.26m80.19 8.34c.9 1.09 1.79 2.18 2.65 3.31-2.1.3-4.23.38-6.32.77-3.8 1.53-.87 6.37-2.72 9.26-1.65.31-3.28.67-4.9 1.05a8.49 8.49 0 0 0 2.27 6.51l.58 3.12-1.83 2.35-.03 2.7c1.38.79 2.81 1.49 4.28 2.11.76 1.11 1.24 2.52 2.43 3.25 1.66.2 3.34.24 5.02.28l1.5 2.38c1.75.54 4 1.55 5.54.03 1.66-1.36 1.95-3.54 2.57-5.45 1.87-.07 3.7-.47 4.42-2.39 3.26.45 3.81-3.2 4.86-5.45l-1.7-3.24a18.94 18.94 0 0 1 2.93-2.87 7.95 7.95 0 0 0-1.13-9.26c-1.62-1.65-1.85-3.8-1.07-5.93-.95-1.49-2.26-3.33-4.28-3.06-1.96.6-3.84 1.5-5.92 1.65l-.03-3.56c-3.19.06-6.36.79-9.12 2.44m-34.44 29.37c-3.89 6.89-6.79 14.53-6.92 22.52-.52 13.02 7 25.89 18.43 32.05 3.44 1.74 7.4.92 11.09 1.31 2.57.15 6.49-.85 6.55-4-2.05-2.35-4.61-4.21-6.52-6.69-7.24-8.32-11.04-19.67-9.52-30.68.62-7.01 3.71-13.47 4.74-20.39-2.25.17-4.45.68-6.35 1.92-1.89 1.66-3.8 3.28-5.57 5.06l-2.06.08c.79-2.22 1.61-4.49 3.2-6.28 4.57-5.46 10.22-9.89 15.9-14.13.67-3.04.31-6.21.29-9.3-9.04 8.35-17.3 17.7-23.26 28.53m-78.63-20.55c-1.46 3.55-4.69 5.55-8.18 6.74-.25 4.97-.75 9.97-.14 14.95l.84-.24c4.42 9.76 11.72 18.42 21.11 23.71.63-5.23.15-10.51-.84-15.66l-.96.17c-6.73-8.56-9.05-19.4-11.83-29.67m4.98 1.76c.53 4.06 2.47 7.74 4 11.48 1.38 2.51 2.59 5.11 4.12 7.54.38-6.87-.3-13.72-.13-20.58-2.63.68-5.26 1.44-7.99 1.56m159.87 5.86c-2.52 1.46-6.25.12-8.11 2.86-2.21 2.44-2.1 5.81-2.09 8.88-1.54.97-2.46 2.99-1.29 4.63 2.04 1.74 4.44 3.05 6.79 4.34l-.21-2.15c1.86.13 3.72.09 5.59.06 2.11-1.59 2.83-4.04 2.69-6.6l3.84-.46c.94-1.69 2.1-3.24 2.97-4.97-.74-1.65-1.8-3.26-1.39-5.15 2.92-2.26.62-6.52-2.6-6.75-3.44-.81-4.64 3.14-6.19 5.31m14.06-2.33c-.83 2.95-1.87 6.13-.47 9.1 4.85 1.11 8.98-1.74 11.9-5.31.75-.68 1.5-1.35 2.27-2.02l-.08-1.43c-4.47-1.16-9.1-1.09-13.62-.34m34.25 7.94c1.5 7.82 4.02 16.13 1.51 23.98-10.1 2.3-18.72 8.41-27.37 13.8-3.29 2.44-6.92 4.53-9.78 7.46a97.57 97.57 0 0 0-5.22 11.84c9.28 4.35 18.59 8.63 28.24 12.08a51.13 51.13 0 0 0 8.41-7.62c5.78-6.63 10.77-14.12 13.47-22.55 4.23-12.57 4.27-26.84-1.41-38.97-2.6-.5-5.24-.37-7.85-.02m-74.66 3.18a38.08 38.08 0 0 0-4.25 6c-1.59 1.2-3.49 1.8-5.36 2.4-3.11 1.64-4.63 4.87-5.64 8.07.86 2.45 2.05 4.98 1.32 7.64-1.5.84-3.25 5.29-.66 5.24l1.34-1.85c3 1.12 5.56 3.54 8.96 3.52 4.05.73 7.64-2.15 9.52-5.48 2.25-5.26 4.25-11.19 2.57-16.91l-2.85-1.36c-5.69.4-11.32 3.54-13.76 8.84-1.64 3.15-.38 6.89 1.47 9.64 2.4 1.42 5.19.75 7.42-.67-2.16-.01-4.32-.03-6.48-.1-2.55-3.84 1.13-7.17 3.51-9.88a6.75 6.75 0 0 1 7 .15c.77 1.84 2.02 3.85.92 5.85-1.38 2.99-3.03 6.54-6.45 7.59-2.6.97-5.58.3-7.88-1.11-2.16-3.23-3.55-7.4-2.27-11.24 1.3-4.86 5.53-8.27 9.93-10.28 3.32-1.12 7.41-2.03 10.49.2 2.94 2.59 2.11 6.95 1.84 10.41-1.09 5.2-2.41 11.19-6.96 14.51l-.67 2.22c-.42-.37-.85-.72-1.28-1.07-2.82 1.86-6.5 1.44-9.61.67-2.23-.57-3.99-2.7-6.36-2.55l.38 2.8c1.79 4.14 6.81 3.31 9.96 1.39l.04 1.73c3.9-1.35 8.29.74 11.94-1.45 3.14-1.83 1.95-5.95 2.73-8.92l3.08.51.25-2.8a79.71 79.71 0 0 0 2.41-3.38 64.41 64.41 0 0 0-2.5-2.72c-.75-2.33.03-4.64.68-6.87-1.78-2.76-3.36-5.84-6.08-7.8-2-.51-4.08.16-6.11.18l-.41-3.03-2.18-.09M85.02 233.93c2.35 15.92 6.38 31.55 11.22 46.87 2.01 5.57 3.31 11.53 6.81 16.42 2.85.84 5.82.86 8.74.36-1.05-5.35 1.28-11.66-2.08-16.35-14.22-21.19-21.2-46.43-24.09-71.57-2.67 7.84-1.7 16.24-.6 24.27m112.38 14.2l.9-1.25c-1.98-2.36-1.77-5.55.06-7.92-.42-3.4-4.33-4.62-4.99-7.83-.16-2.93 1.89-5.1 3.12-7.53-.15-1.59-.62-3.12-.83-4.69.38-1.68 1.57-2.99 2.32-4.5-2.08-1.11-4.16-2.27-5.82-3.98-5.44 12.09-4.77 28.14 5.24 37.7m2.02-29.55c.47 1.82 1.07 3.62 1.34 5.49-.5 1.88-2.8 2.82-2.74 4.92-.18 1.67.95 2.98 1.81 4.27.35 1.56.3 3.3 1.09 4.74 2 1.48 4.04 2.93 5.89 4.61 1.7-.8 3.43-1.54 5.18-2.23 1.47 2.95 4.48-.09 5.04-2.07-1.72-2.39-3.11-5.11-2.61-8.15.74-.97 1.49-1.94 2.22-2.92-.08-5.12-5.39-8.99-10.18-6.85l-1.16-3.01a7.4 7.4 0 0 0-5.88 1.2m50.95 1.38c-.02 3.25.84 6.41 2.15 9.37 4.39.96 8.7 2.34 13.19 2.76-.41-4.72-2.03-9.79-6.11-12.6-3.07-.27-6.16.28-9.23.47m-23.35 6.77c2.2.16 4.53-.22 6.48 1.09 1.04-2.09 1.81-4.35 1.05-6.67-3.7-.65-5.81 2.93-7.53 5.58m-131.92 2.5c2.09 14.3 7.91 27.94 15.75 40.01-.82-9.62-1.32-19.27-2.18-28.9a314.1 314.1 0 0 0-13.57-11.11m121.01 15.97l-.52 3.38-1.29-.13.98.51c.48 6.74 3.95 12.98 8.52 17.83a67.22 67.22 0 0 1 3.12-18.34c-3.95 1.59-8.11-.31-10.81-3.25m-14.44 2.94c3.85 2.02 4.2 6.41 3.91 10.3 2.34-.29 4.53.18 6.25 1.87l1.66.14c.74-4.05-.68-7.96-2.15-11.66a25.23 25.23 0 0 0-9.67-.65m31.61 9.74l2.64 2.51 1.36-.06.82-2.27-2.1-2.96c-.97.87-1.88 1.8-2.72 2.78m116.74 25.42c-6.31 2.16-13.02 2.8-19.64 3.12l1.13 3.08c-2.45 1.26-3.11-1.71-4.36-2.99-3.88.11-8.76-2.26-11.59 1.48l-.25-2.68c-18.28-2.63-35.27-10.43-51.26-19.34-1.87-1.62-2.77 1.09-3.78 2.3-1.23 1.5-2.4 3.25-4.32 3.92-2.26.3-4.37-.88-6.51-1.4-7.38-2.02-15.03-2.67-22.54-3.99a92.68 92.68 0 0 1-.9 5.46c-3.59-1.36-5.77-4.6-7.83-7.64-1.56.66-3.13 1.29-4.71 1.92l-.09 2.9a45.12 45.12 0 0 1-5.21-1.67c-4.08 1.09-7.96 2.94-12.18 3.43-4.17.69-8.39.18-12.57-.09.17 1.62.36 3.26.57 4.89h-1.71l-.35 2.04a28.33 28.33 0 0 1-.69-7.28c-3.6-1.75-6.79-4.26-10.53-5.74a76.19 76.19 0 0 0-1.45 20.93 155.82 155.82 0 0 0 10.33 48.62c8.01 20.79 21.87 39.62 40.87 51.58a3.31 3.31 0 0 0-.92 2.52c-.27-1.33-1.51-1.93-2.54-2.6-2.73-1.59-5.33-3.81-8.67-3.76 4.36 17.57 7.72 35.84 5.13 53.96a51.7 51.7 0 0 0 15.53 1.47 296.65 296.65 0 0 0 35.95-3.54c10.33-.74 20.71-.51 31.06-.15 8.04.39 16.24.46 23.99 2.91 4.81 1.71 10.02 1.31 15.03 1.23 15.25-1.19 30.32-4.29 44.99-8.58 8.62-2.92 18.2-5.11 24.63-12.04.15-4.22-.6-8.41-1.8-12.43-2.59-8.6-5.25-17.2-8.67-25.51-2.38 4.22-4.17 8.76-6.84 12.82-.22.73-2.41 2.53-2.16.56-.41-12.72 8.07-24.19 7.05-37.01-.32-7.53-.3-15.06-.09-22.59.2-8.81 5.56-17.52 2.39-26.32l-1.73 2.71c-1.11 1.16-2.21 2.35-3.35 3.49-.65-4.08.75-8.09 2.26-11.81 1.02-2.42 3.02-4.62 2.87-7.39-.08-5.61-2.6-10.75-3.94-16.11-.87-3.91-2.76-7.46-4.78-10.88a86.61 86.61 0 0 0-6.65-8.13c-7.09 10.74-17.58 18.92-29.17 24.33m-233.76 6.64c-.03 1.64-.06 3.28-.07 4.93l3.61-.56a164.67 164.67 0 0 0-3.54-4.37m5.3 7.4a97.78 97.78 0 0 0-15.23 23c-10.95 23.48-13.04 50.15-10.49 75.65.39 5.69 1.86 11.24 2.23 16.93 1.41-1.98 1.96-4.38 2.46-6.72 1.21 9.82 3.73 19.59 8.28 28.42a34.98 34.98 0 0 0 15.35 2.37l-1.97-1.85c1.32 1.01 2.87 1.39 4.41.47a91.45 91.45 0 0 1-5.52-16.56 3.71 3.71 0 0 1 .45-3.64 2.3 2.3 0 0 1-1.61-2.31c-3.05-18.94-1.8-38.31 1.14-57.17 2.87-16.41 6.6-32.75 12.42-48.37-3.48-3.5-7.48-6.44-10.75-10.17l-1.17-.05m-16.29 5.47c-.24 1.44-.46 2.9-.66 4.35 2-.32 3.96-.83 5.92-1.34l.08-3.53c-1.79-.01-3.58.19-5.34.52m295.08 3.11c-.33 7.4-.91 14.79-1.72 22.15-.28 8.91-.44 17.98.5 26.78 10.4 16.3 18.52 33.93 28.85 50.25 4.62 7.7 14.83 7.34 22.67 7.84-1.48-4.7-4-8.98-6.02-13.45-4.92-10.55-10.07-21-14.95-31.57l1.24.01-1.54-.51c-9.59-20.54-19.67-40.86-29.03-61.5m-262.76 5.32l.25 1.57c-2.17 5.29-4.34 10.61-5.67 16.19-4.34 17.97-5.4 36.57-5.15 55 .4 15.76 1.5 31.55 4.35 47.08.8 3.75 1.4 7.65 3.26 11.07 3.19.48 6.29 1.4 9.49 1.8.53-1.46 0-3.4-1.79-3.49l1.22-.34a469.06 469.06 0 0 1-3.2-23c-.25-2.91-3.32-5.01-2.65-8.07.91-13.07 1.78-26.14 2.66-39.21-.01-1.09.51-1.89 1.53-2.4.44 11.53-.53 23.07-1.07 34.59.03 2.89-1.38 6.1.44 8.72 1.13 2.36 3.38 4.38 3.34 7.17.49 8.83 1.92 17.58 3.69 26.23 4.12 1.27 8.49 1.36 12.74.86 6.81-.92 13.9-2.48 19.36-6.9-1.97-15.77-.85-31.74-1.68-47.57l-2.19-.52c-.42-9.1 2.94-17.75 4.4-26.62l-2.34.18c-1.11 1.74-2.38 3.38-4.38 4.14a79.57 79.57 0 0 0-6.25-1.44c-3.91 4.22-10.38 3.81-15 1.07-3.56-1.47-5.82-5.13-9.74-5.77-5.52-.99-10.43-5.74-10.24-11.59.25-8.1 4.08-15.62 8.71-22.09-.06-4.84.32-9.7-.03-14.53-1.16-1.04-2.67-1.51-4.06-2.13m10.11 7.88c.08 2.01.05 4.03 0 6.04 6.04 3.65 13.85 7.02 20.5 2.82-.5-2.19-1.08-4.35-1.65-6.52-6.39.43-12.67-.91-18.85-2.34m-2.9 12.2c-2.25 2.73-5.15 5.18-6 8.76-1.63 5.31-2.32 11.55.85 16.44 1.2.19 2.4.37 3.61.54-1.18-3.88-2.29-7.94-1.56-12.03.09-1.28 1.38-2.85 2.66-1.69.16 3.29.45 6.64 1.81 9.7l-1.01 1.69 1.48-1.84c2.28 4.62 5.15 9.74 10.32 11.54 1.72.78 3.71.06 4.68-1.51-2.28-5.36-6.51-10.68-5.14-16.87.9.48 1.94.93 2.25 2.04 2.1 4.07 2.65 9.13 6.33 12.23 1.39 1.29 3.33 1.55 5.06 2.13a29.9 29.9 0 0 0 4.52-3.06c-4.48-4.36-8.53-9.71-9.02-16.17 5.96 2.87 6.29 12.08 13.56 12.79l.19 1.57c1.38-1.09 3.59-3.14 1.94-4.96-4.22-6.59-6.66-14.17-11.35-20.48l-1.87 2.15c-7.7 3.73-15.95-.36-23.31-2.97m253.65 32.89c.05 2.63-.1 5.33.86 7.83 3.72 11.17 7.08 22.45 10.92 33.57-.28.7-.56 1.4-.82 2.11l2.51 1.13c3.29-.03 6.52.79 9.82.74-.12-3.55-2.26-6.51-3.71-9.62-4.46-8.46-9.1-16.84-13.79-25.18-1.98-3.49-4.1-6.93-5.79-10.58m66.35 26.44c.82 2.82 1.66 5.64 2.55 8.44l2.7-.83c.62-1.28 1.29-2.53 1.94-3.79a27.59 27.59 0 0 1-7.19-3.82M98.5 413.36c1.75 7.04 3.01 14.49 7.18 20.6-2.32-6.42-5.12-12.88-5.56-19.75l-1.62-.85m273.77 25.08c-8.6 15.63-25.54 25.99-43.11 27.98-4.37.36-9.92.3-12.61-3.8-2.4-4.06-.14-8.66 1.24-12.63-2.87 4.11-5.93 8.14-8.01 12.74-1.81 3.69-2.45 8.52.79 11.63 2.91 1.27 6.07 2.16 9.28 1.82 13.79-1.05 28.24-3.23 39.79-11.42 6-4.14 10.2-10.86 17.31-13.32.44 1.78.97 3.55 1.62 5.28 2.33.22 4.23-1.02 5.87-2.51 1.55-6.13.65-12.5-.3-18.64-3.98.86-7.93 1.84-11.87 2.87m-295.52 9.68l-.9 3.19c14.39.35 29.03.72 43.11-2.74 3.84-1.13 7.96-2.56 10.36-5.99l-.16-2.21c-4.57 1.58-9.46.7-14.09-.14-1.48.08-2.36-.56-2.61-1.9l-.4 1.23c-3.47-.39-6.66-2.06-10.12-2.45-8.73 2.74-17.54 5.87-25.19 11.01m251.54-3.07c-2.75 4.22-6.77 7.89-7.81 13-.53 3.91 4.57 4.03 7.26 3.46 8.1-2.08 15.73-5.69 23.16-9.48 4.79-2.91 9.95-6.19 12.2-11.59-11.48 2.41-23.13 3.67-34.81 4.61m-93.9-1.44c-2.21 4.24-4.93 8.84-4.11 13.82 11.68-2.18 24.13-6.51 31.49-16.42-9.14.42-18.38 1.19-27.38 2.6m34.23-.07c-8.22 7.38-18.12 12.54-28.17 16.94-4.69 1.69-10.38 3.94-15 .91-1.99-5.05 1.24-9.86 2.21-14.71a9.26 9.26 0 0 0-3.95 3.08c-3.78 4.63-7.38 9.6-9.29 15.32-.73 2.27-1.23 5.7 1.52 6.8 6.05.31 12.17.24 18.13-.93 13.89-2.48 26.34-9.89 37.02-18.86 1.94-1.37 3.69-3.57 6.24-3.62 1.91 2.48.46 5.77.2 8.58l1.16 1.4c1.78-.13 3.59-.84 4.39-2.57 2.05-4.55 2.22-9.62 2.73-14.5-5.69-.15-12.61-2.38-17.19 2.16m-86.71-1.53l-.14 1.49c-9.64 5.31-20.9 6.58-31.74 6.69-2.69.2-5.59-1.13-8.09.28-4.36 1.99-8.5 4.41-12.72 6.69l-2.51 1.57.12-1.72-.41 1.75c-2.66 2.16-6.03 3.66-7.55 6.93 6.73.71 13.48-.27 20.14-1.24 15.3-2.74 30.5-8.45 42.26-18.88 1.12-.9.85-2.34.64-3.56z"/><path d="M289.5 41.65c4.1-1.55 7.72 1.89 9.1 5.48a9.85 9.85 0 0 1-7.08 1.09c-4.22-1.43-8 2.32-12.28 1.06 2.52-3.54 6.48-5.69 10.26-7.63zM325.15 45.48l2.5-.19c2.57 1.65 5.3 3.34 6.98 5.99a19 19 0 0 1 .33 10.95c-3.27-3.73-5.27-9.27-10.69-10.4-.04-2.15.18-4.31.88-6.35zM304.61 46.62l2.3.16c-3.12 3.6-7.45 6.06-9.76 10.37-2.01 3.89-3.76 8.02-3.64 12.48 4.05.12 7.46-2.36 11.26-3.35-1.64 5.54-8.61 6.88-13.57 6.55-1.15-6.17-.06-12.79 3.38-18.07a31.79 31.79 0 0 1 10.03-8.14zM356.29 50.95c1.35-.57 2.7-1.16 4.04-1.76l2.54.56c-.2 1.73-.51 4.2-2.84 4.09-2.09.79-3.01-1.44-3.74-2.89zM284.84 50.8l1.72-.58.05 3.75c1.02.72 1.93 1.57 2.66 2.58a27.92 27.92 0 0 0-3.12 5.23c-1.81.04-3.5-.57-5.19-1.13-1.55.32-2.95 1.61-4.59 1.13.37-1.3.88-2.55 1.34-3.82l2.18.73-1.46-.9c2.74-.96 2.07-3.45 1.74-5.66l2.28 2.32.46-4.45c.69 1.66 1.02 3.41.97 5.25.62-1.41.94-2.89.96-4.45zM318.54 57.32l2.13-.38c-.72 2.43-1.68 6.87 2.15 6.88.33-1.78.73-3.55 1.05-5.33l2.36.84a28.11 28.11 0 0 0-1.67 4.6l2.19.01-.51 1.96c.75-1.13 1.51-2.25 2.28-3.37l2.35.27c-.8.97-1.6 1.95-2.36 2.94 3.02 1.9 4.74 5.13 5.72 8.46-.2 1.24-2.77 5.52-1.44 1.85a31.14 31.14 0 0 1-3-4.07c-1.71.32-3.41.71-5.06 1.23-1.27-.62-3.23-.61-3.72-2.21-.34-1.42-.31-2.9-.46-4.35l-5.34.17.15-2.18 2.73-.71c.13-2.2.26-4.41.45-6.61zM364.54 57.24c1.34.31 3.11-.07 3.99 1.26 1.74 1.98.98 4.88 1.05 7.28-1.55.4-3.12.67-4.7.85-1.89-2.91-2.4-6.42-.34-9.39m.31 6.63l3.54.19c.02-1.47-.09-2.94-.24-4.4-2.16.37-4.23 1.69-3.3 4.21zM360.28 76.95c-1.69-3.28.67-6.53 2.58-9.08 2.86.16 7 .55 7.82 3.93 1.25 2.63-.12 5.33-.98 7.83-3.34 1.44-7.62.74-9.42-2.68m3.68-6.37c-1.28 2.14-1.91 4.51-1.09 6.95 1.81.09 3.63.17 5.46.24.69-2.42 1.76-6.22-1.45-7.26l-2.92.07zM221.67 76.38c.25-1.52 2.2-.97 3.26-1.3-.68 2.34-2.7 4.45-1.94 7.03.28 1.72 1.16 3.25 1.82 4.84l-2.16-.45c-1.89-3.05-2.48-6.75-.98-10.12zM234.1 81.26c2.94.27-1.38 2.93 0 0zM63.54 87.42c.02-1.51.08-3.02.18-4.53 4.86.41 9.95.64 14.26 3.19-4.43 2.21-9.65 1.63-14.44 1.34zM359.94 90.95c1-5.44 7.78-9.49 12.58-5.76.53 1.26 1.09 2.52 1.67 3.77-.24 3.95-2.91 6.73-5.67 9.23-2.14.54-4.25-.36-6.29-.87-1.01-2.02-2.15-4.07-2.29-6.37m4.62-3.19c-.74 2.79-.92 5.75.52 8.35 1.46-.88 2.78-1.96 4.1-3.03l2.42-.68c1.23-1.11-.11-2.31-.58-3.41l-1.86 2.21c-1.43-1.19.8-4.76-2.14-4.77l-2.46 1.33zM340.35 84.21c1.62-.47 2.14.11 1.57 1.74-1.63.47-2.16-.11-1.57-1.74zM96.07 87.1c5.55-.53 11.28-.03 16.16 2.86l.3 2.75c-5.5-1.34-11-3.48-16.76-2.65l.3-2.96zM223.36 93.37c1.33.13 2.67.19 3.99.45 1.92 1.26.23 3.49-.54 4.92l-3.13-.4c-.26-1.64-.42-3.3-.32-4.97zM70.75 98.94c-.3-2.37 1.63-5.04 4.21-4.63 4.71.76 6.69 6.55 5.47 10.7l1.43-.58c-1.32.93-2.52 2.07-3.99 2.75-1.42.27-2.77-.43-4.12-.71-1.62-2.2-3.48-4.61-3-7.53zM230.38 97.55c1.41-.32 2.87-.72 4.2.13.39 1.43-.79 2.41-1.49 3.47l-2.53-1.41-.18-2.19zM341.58 98.55l2.95-.11-.14 1.75c-.68.51-1.36 1-2.05 1.48a88.45 88.45 0 0 1-.76-3.12zM34.58 99.54c1.69.18 3.38.36 5.08.52-.04 4.65-2.97 8.38-5.07 12.29-1.23-4.19-.96-8.6-.01-12.81zM258.66 99.73l2.8-.15.05 4.17-3.13-.82.28-3.2zM329.47 102.65c1.16-.08 2.32-.16 3.49-.22l.48 2.92c-.9.38-1.77.82-2.69 1.14-.51-1.25-.89-2.55-1.28-3.84zM263.69 105.38l2.84.07-.16 2.78-2.53.13-.15-2.98zM57.43 106.36c.99 1.01 2.04 1.95 2.94 3.04.69 5.31.38 10.67-.27 15.96 2.45 1.36 5.16 2.06 7.9 2.58-1.09 1.4-2.08 4.24-4.32 3.26-3.18-1.38-6.45-3.19-8.4-6.14.39-6.25.93-12.54 2.15-18.7zM228.48 108.34c1.02-.3 2.03-.61 3.06-.9l.96 1.52-1.01 1.55-3.09.13.08-2.3zM313.44 110.65c3.01-2.31 6.53-.46 9.29 1.23 2.47 3.36 2.35 7.53 2.43 11.49 1.11.76 2.21 1.54 3.3 2.36-1.23 1.03-2.72.24-3.84-.52l.03 2.84a35 35 0 0 1-.61-3.52 20.58 20.58 0 0 1-5.97 3.49c.21 1.73.38 3.46.39 5.2a16.43 16.43 0 0 1-2.53-4.99c-2.48-1.17-4.27-3.24-5.91-5.36-1.83-4.31-1.11-9.93 3.42-12.22m1.7 14.59c.03-2.2 3-3.11 3.55-.7.87-.56 1.74-1.13 2.62-1.68a38.4 38.4 0 0 1-.95-2.2l2.61-.19c-.62-3.67-2.37-9.2-6.93-9.02-4.59 2.57-5.83 10.86-.9 13.79zM39.82 114.89c1.32-2.62 4.9-1.85 6.73-.23 2.84 2.72 3.32 7.13 1.75 10.63l-3.4 1.07c-4.57-1.42-7.42-7.14-5.08-11.47zM263.21 120.12c-.54-2.37-1.78-4.86-.73-7.27 2.73 6.12 6.02 12.1 11.26 16.45 6.77 5.34 15.98 6.61 24.22 4.53 3.58-.64 7.21-2.74 10.88-1.37-.35 1.74-2.48 2-3.82 2.65-8.56 2.95-18.09 4.53-26.91 1.76-7.51-2.45-12.81-9.32-14.9-16.75zM17.88 158.99c-3.51-9.26 4.27-17.28 10.35-23.2 2.17 7.76 4.77 16.12 2.35 24.12-.91 2.77-3.99 3.53-6.58 3.72a52.93 52.93 0 0 1-6.12-4.64m4.16.81l3.66-.06 1.51-1.65c.7-4.59-.73-9.03-2.18-13.31-3.34 4.09-4.79 9.97-2.99 15.02zM69.34 144.11c2.16-.91 4.33-1.97 6.71-2.15 1.92.27 3.62 1.25 5.36 2.03l.24 3.41c-1.61.22-3.65 1.37-4.87-.26-1.52-2-4.03-1.64-6.26-1.77l-1.18-1.26zM74.54 151.27c1.5.91 2.87 2.17 4.64 2.53 2.2-1.23 4.52-2.14 7.04-1.35l2.2 2.17c-4.27.37-8.24 4.14-12.56 1.89l-1.06-2.04-.26-3.2zM358.54 171.41c.55-1.11 2.11-.74 3.13-.95.97.85.06 2.17 0 3.19-1.08-.64-3.98-.3-3.13-2.24zM368.3 175.55l2.39.94-.15 2.14a86.65 86.65 0 0 1-4.54-.89l1.6.18.7-2.37zM213.49 181.62c2-.77 4.5-1.93 6.45-.36 4.28 3 5.77 8.93 4.3 13.81-1.7 6.44-5.13 12.69-10.34 16.93-5.71 4.28-14.26-1.43-14.21-8.09-.02-6.9 3.9-12.99 7.72-18.44 1.2-2.58 4.45-1.7 6.08-3.85m-1.27 4.59c-3.78 4.47-6.83 9.89-7.42 15.8-.23 1.98 1.33 3.36 2.47 4.75.78-.31 1.58-.59 2.37-.88-2.7-1.71-1.28-5.44-1.22-8.02.19-3.46 2.14-6.38 4.82-8.46 4.08 2.59 3.37 8.55 1.41 12.31-1.44 3.2-3.47 7.9-7.75 7.3-3.28-.55-3.98-4.44-4.76-7.11-.96 5.8 6.05 11.91 11.08 7.48 4.37-4.53 7.66-10.22 8.84-16.44.74-3.43-.82-7.08-3.28-9.44-2.6-1.39-4.96.91-6.56 2.71m-1.72 17.76c2.23-3.24 3.65-7.21 2.85-11.16-2.58 3.12-2.75 7.29-2.85 11.16zM364.88 184.53c1.79.49 3.41 1.42 3.49 3.54-1.4.12-2.85.37-4.19-.2.2-1.12.44-2.24.7-3.34zM259.92 195.16l3.28.84c1.3 5.61-1.16 11.21-5.37 14.89-.91 1.53-2.9 1.15-3.43-.48-1.52.35-2.59-.22-2.76-1.82 1.87-4.96 5.49-8.98 8.28-13.43m-1.24 6.27c-1.09 1.74-2.17 3.52-2.62 5.55l.95-2.11 3.1-.17c.32-2.07.75-4.13 1.03-6.21-.83.97-1.63 1.97-2.46 2.94zM289.61 202.1c.24-2.53 3.19-2.81 5.04-3.71l.16 2.08 1.25-.02c.18 2.3.2 4.64-.59 6.84l-3.18.16c-1.63-1.34-3.21-3.05-2.68-5.35m1.85-.71l.12 3.05 3.03.75a133.2 133.2 0 0 0-.12-4.01l-3.03.21zM293.6 213.34c1.93-.61 3.93-.93 5.94-1.06.99 3.07 1.36 7.65-2.58 8.67-2.42 1.39-4.75-.02-4.95-2.73.5-1.64 1.02-3.27 1.59-4.88m.43 2.68l.82 2.48c1.38.02 2.75-.15 4.05-.63-.36-1.17-.58-2.43-1.43-3.36-1.28.11-2.36.89-3.44 1.51zM368.72 213.56c1.02-1.03 2.56-.97 3.87-1.32.16 2.29-1.54 3.54-3.58 4.01-.15-.9-.25-1.79-.29-2.69zM174.49 219.71c1.49-.09 2.99-.16 4.49-.22-.16 1.28-.28 2.58-.6 3.84-1.03.23-2.07.42-3.11.56l-1.11-2.08.33-2.1zM277.75 221.62c2.23-.51 4.51-.65 6.76-.14.23 2.9 1.01 7.06-1.94 8.83-1.8.74-4.9 1.35-5.86-.89-1.63-2.53-.4-5.52 1.04-7.8m.42 2.43c-.06 1.84.02 5.02 2.73 4.55 2.59-.47 1.93-3.62 2.07-5.53-1.63.19-3.23.5-4.8.98zM201.25 225.06c.06-1.57 1.33-2.14 2.68-2.47.24 5.2 2.4 10.08 5.88 13.92l1.85.15c-.69-2.6-1.22-5.33-2.83-7.56-1.26-2.06-4.19-2.81-4.24-5.6 5.29.73 7.9 6 9.04 10.65a5.84 5.84 0 0 1-1.41 5.22 8.96 8.96 0 0 1-9.34-1.21c-3.47-3.51-2.44-8.75-1.63-13.1m6.42 12.81a101.19 101.19 0 0 1-4.6-7.04c-.44 3.24 1.36 6.3 4.6 7.04zM371.69 224.57l2.65-.12.06 2.95-3.12.23c.13-1.02.26-2.04.41-3.06zM179.06 228l3.2.06-.55 2.52-2.64.17-.01-2.75zM176.51 234.39c1.11.28 2.23.58 3.34.9-1.03 1.32-2.15 2.61-3.9 2.93.16-1.29.35-2.56.56-3.83zM363.38 236.43l2.19.14.2 2.28-2.36-.11-.03-2.31zM256.36 242.61l2.83-.68c3.48.89 3.16 4.57 2.86 7.45a12.66 12.66 0 0 1-5.99.92l-1.36-2.18c.4-1.88.9-3.75 1.66-5.51m.72 5.64c2.2.34 4.91-1.2 3.26-3.63-2.86-1.81-3.79 1.36-3.26 3.63zM362.12 247.66l2.51-.05.25 2.08-2.56.74-.2-2.77zM174.75 248.05c1.98-.5 2.8.61 2.94 2.4l-2.5.31-.44-2.71zM330.75 253.8c.93-.44 1.87-.86 2.82-1.29 0 .99-.02 1.98-.07 2.98a61.6 61.6 0 0 1-3.04.4l.29-2.09zM246.57 262.58c-.29-3.04 1.57-7.6 5.38-6.12 2.68.28 2.19 3.64 1.97 5.55-1.46 2.98-5.11 2.03-7.35.57m1.99-.63l3.29-.21c1-1.49.03-3.06-.5-4.5-2.55.57-3.36 2.32-2.79 4.71zM116.67 257.41c3.66-1.16 5.96 1.89 7.68 4.57l1.07 1.28c-.53 2.41-1.48 4.79-2.06 7.23-1.12.28-2.25.58-3.37.88-5-2.44-6.56-9.5-3.32-13.96zM343.69 264.96l1.84 1.82-.27 2.75-3.14-1.11 1.57-3.46zM318.46 268.66c-.3-1.1.18-1.75 1.44-1.94.72.9 1.37 1.88 1.99 2.87-1.17-.2-2.46-.15-3.43-.93zM328.09 270.57c1.12-.41 2.26-.81 3.39-1.2.45 1.52.54 3.01-.98 3.91l-.52-3.07-1.89.36zM122.3 273.96a7.3 7.3 0 0 1 5.91-.46c2.73 3.8 4.04 9.06 1.18 13.18-1.66-.08-3.63.39-4.85-1.06-3.46-2.81-3.5-7.74-2.24-11.66zM359.89 324.97c2.79-1.67 5.26-3.85 8.27-5.14-3.48 5.51-8.9 9.28-13.69 13.55-4.06 3.72-9.44 5.77-12.92 10.17-11.86 12.64-25.05 25.46-42.3 30.04 9.13-10.72 21.3-18.2 32.23-26.89 4.54-3.1 8.23-7.21 11.59-11.51 5.4-3.73 11.22-6.8 16.82-10.22zM221.62 340.82c12.45-3.45 25.21 2.08 35.89 8.18l.03 2.05c-7.48-1.74-14.8-5.54-22.66-4.58-1.7.11-2.39 1.98-3.38 3.08-3.33-.06-7.09-.07-9.66-2.54-2.09-1.54-.58-4.21-.22-6.19z"/></g></svg>